<?xml version="1.0" encoding="utf-8"?>
<!-- Generator: Adobe Illustrator 23.0.0, SVG Export Plug-In . SVG Version: 6.00 Build 0)  -->
<svg version="1.1" xmlns="http://www.w3.org/2000/svg" xmlns:xlink="http://www.w3.org/1999/xlink" x="0px" y="0px"
	 viewBox="0 0 500 500" style="enable-background:new 0 0 500 500;" xml:space="preserve">
<style type="text/css">
	.st0{fill:#EBEBEB;}
	.st1{fill:#E0E0E0;}
	.st2{fill:#FFFFFF;}
	.st3{fill:#F5F5F5;}
	.st4{display:none;}
	.st5{display:inline;fill:#EBEBEB;}
	.st6{fill:#263238;}
	.st7{fill:#FFBE9D;}
	.st8{fill:#EB996E;}
	.st9{opacity:0.78;}
	.st10{fill:#455A64;}
	.st11{fill:#009688;}
	.st12{fill:#FAFAFA;}
	.st13{opacity:0.4;}
	.st14{opacity:0.6;}
	.st15{opacity:0.3;}
	.st16{fill:#E8505B;}
</style>
<g id="Background_Complete">
	<g>
		<g>
			<g>
				<path class="st0" d="M106.12,275.13c0,0-9.08,2.4-1.44,22.01c7.64,19.6,13.3,29.5,13.3,29.5s1.25,4.5-2.46,4.8
					c-3.71,0.31-11.61-1.78-13.68,2.52c-2.15,4.46,0.77,9.16,7.2,13.67c6.43,4.51,20.14,14.91,21.38,15.86
					c1.21,0.93,2.31,3.07-0.19,3.69c-2.49,0.61-20.73,0.68-20.18,9.33c0.55,8.65,20.52,18.28,22.68,19.37
					c2.16,1.09,2.6,2.1,2.3,3.32c-0.31,1.22-6.44,0.66-11.63,0.89c-5.19,0.23-11.16,1.41-10.42,6.37
					c0.74,4.96,11.99,16.37,41.5,22.29l13.86,1.85l8.75-10.98c17.29-24.65,17.56-40.67,14.67-44.77c-2.89-4.1-8.03-0.83-11.94,2.57
					c-3.91,3.41-7.97,8.04-9.03,7.37c-1.06-0.67-1.44-1.7-0.63-3.99c0.81-2.28,8.62-23.03,3.05-29.67
					c-5.57-6.64-18.82,5.89-21.05,7.16c-2.23,1.28-2.92-1.03-2.68-2.54c0.24-1.54,3-18.53,4.54-26.23
					c1.54-7.7,0.41-13.12-4.22-14.86c-4.46-1.68-8.74,5.28-11.64,7.61c-2.9,2.34-5.09-1.78-5.09-1.78s-2.73-11.07-10.72-30.53
					c-7.99-19.46-16.41-14.78-16.41-14.78"/>
			</g>
		</g>
		<g>
			<g>
				<g>
					<path class="st1" d="M168.73,433.93c-5.81-14.32-15.72-39.93-24.34-61.88c-8.62-21.94-16.44-41.8-22.18-56.14
						c-2.87-7.16-5.2-12.95-6.82-16.98c-0.8-1.99-1.42-3.55-1.85-4.62c-0.2-0.52-0.36-0.92-0.47-1.21c-0.1-0.27-0.15-0.42-0.15-0.42
						s0.07,0.13,0.19,0.4c0.12,0.28,0.29,0.68,0.51,1.19c0.45,1.07,1.09,2.61,1.93,4.59c1.67,3.99,4.04,9.77,6.94,16.93
						c5.81,14.32,13.68,34.16,22.29,56.1c8.62,21.95,18.48,47.58,24.22,61.92"/>
				</g>
			</g>
		</g>
		<g>
			<g>
				<g>
					<path class="st1" d="M112.77,337.31c0.01-0.03,0.35,0.11,0.94,0.37c0.6,0.26,1.45,0.66,2.49,1.17
						c2.09,1.01,4.94,2.49,8.06,4.17c3.07,1.67,5.84,3.18,7.96,4.34c0.96,0.52,1.77,0.95,2.42,1.3c0.57,0.3,0.88,0.49,0.87,0.51
						c-0.01,0.03-0.35-0.1-0.95-0.36c-0.6-0.26-1.45-0.66-2.49-1.18c-2.08-1.04-4.91-2.55-8.03-4.23c-3.08-1.65-5.86-3.14-7.99-4.28
						c-0.96-0.51-1.77-0.94-2.43-1.29C113.06,337.52,112.75,337.34,112.77,337.31z"/>
				</g>
			</g>
		</g>
		<g>
			<g>
				<g>
					<path class="st1" d="M136.55,348.37c-0.11-0.05,2.67-6.06,6.21-13.42c3.54-7.36,6.49-13.29,6.6-13.24
						c0.11,0.05-2.67,6.06-6.21,13.42C139.61,342.5,136.66,348.43,136.55,348.37z"/>
				</g>
			</g>
		</g>
		<g>
			<g>
				<g>
					<path class="st1" d="M148.26,382.67c-0.02-0.02,0.21-0.31,0.65-0.8c0.5-0.56,1.13-1.26,1.87-2.09c1.58-1.76,3.75-4.21,6.05-7
						c2.3-2.78,4.3-5.37,5.73-7.26c0.67-0.89,1.24-1.64,1.7-2.23c0.4-0.53,0.64-0.81,0.66-0.79c0.02,0.02-0.16,0.33-0.53,0.89
						c-0.36,0.56-0.9,1.35-1.59,2.32c-1.37,1.94-3.33,4.56-5.64,7.36c-2.3,2.79-4.52,5.22-6.15,6.93c-0.82,0.85-1.5,1.54-1.98,2
						C148.56,382.45,148.29,382.69,148.26,382.67z"/>
				</g>
			</g>
		</g>
		<g>
			<g>
				<g>
					<path class="st1" d="M124.55,377.4c0.01-0.03,0.34,0.01,0.95,0.11c0.69,0.13,1.55,0.28,2.55,0.46c2.15,0.41,5.12,1,8.39,1.69
						c3.27,0.68,6.23,1.33,8.36,1.81c0.99,0.24,1.84,0.44,2.52,0.6c0.59,0.15,0.92,0.25,0.91,0.28c-0.01,0.03-0.34-0.01-0.95-0.11
						c-0.69-0.13-1.55-0.28-2.55-0.46c-2.15-0.41-5.12-1-8.39-1.69c-3.27-0.68-6.23-1.33-8.36-1.81c-0.99-0.24-1.84-0.44-2.52-0.6
						C124.87,377.53,124.54,377.43,124.55,377.4z"/>
				</g>
			</g>
		</g>
		<g>
			<g>
				<g>
					<path class="st1" d="M131.04,408.99c0.01-0.03,0.44,0.03,1.21,0.15c0.85,0.15,1.95,0.35,3.27,0.58
						c2.76,0.51,6.57,1.24,10.77,2.08c4.2,0.84,8,1.62,10.74,2.2c1.31,0.29,2.4,0.53,3.25,0.72c0.76,0.18,1.18,0.29,1.18,0.32
						c-0.01,0.03-0.44-0.03-1.21-0.15c-0.85-0.15-1.95-0.35-3.27-0.58c-2.76-0.51-6.57-1.24-10.77-2.08c-4.2-0.84-8-1.62-10.74-2.2
						c-1.31-0.29-2.4-0.53-3.25-0.72C131.46,409.13,131.04,409.02,131.04,408.99z"/>
				</g>
			</g>
		</g>
		<g>
			<g>
				<g>
					<path class="st1" d="M160.78,414.69c-0.02-0.02,0.26-0.39,0.8-1.04c0.59-0.71,1.36-1.62,2.28-2.73
						c1.92-2.31,4.57-5.51,7.38-9.12c2.82-3.61,5.29-6.95,7.06-9.37c0.85-1.17,1.56-2.13,2.1-2.87c0.5-0.68,0.79-1.04,0.81-1.03
						c0.02,0.02-0.22,0.42-0.67,1.12c-0.46,0.71-1.13,1.72-1.99,2.96c-1.71,2.48-4.14,5.85-6.97,9.46c-2.82,3.62-5.51,6.8-7.49,9.06
						c-0.99,1.13-1.81,2.03-2.39,2.64C161.13,414.38,160.8,414.71,160.78,414.69z"/>
				</g>
			</g>
		</g>
	</g>
	<g>
		<g>
			<g>
				<g>
					<g>
						<path class="st0" d="M379.54,461.69l-69.43-114.92c-2.15-3.57-1.01-8.2,2.56-10.36l70.21-42.42c3.57-2.15,8.2-1.01,10.36,2.56
							l69.43,114.92c2.15,3.56,1.01,8.2-2.55,10.35l-70.21,42.42C386.33,466.4,381.7,465.25,379.54,461.69z"/>
					</g>
					<g>
						<path class="st2" d="M435.85,410.77c-4.87,2.94-11.21,1.38-14.15-3.49c-2.94-4.87-1.38-11.21,3.49-14.15
							c4.87-2.94,11.21-1.38,14.15,3.49C442.29,401.49,440.72,407.83,435.85,410.77z"/>
					</g>
					<g>
						<path class="st2" d="M436.96,423.39c-0.87,0-1.74-0.11-2.61-0.32c-2.8-0.69-5.17-2.43-6.66-4.9
							c-3.08-5.1-1.44-11.76,3.66-14.84c5.1-3.08,11.76-1.44,14.84,3.66c3.08,5.1,1.44,11.76-3.66,14.84
							C440.82,422.86,438.91,423.39,436.96,423.39z M436.93,402.77c-1.77,0-3.5,0.48-5.05,1.42c-2.24,1.35-3.82,3.5-4.45,6.04
							c-0.63,2.54-0.23,5.18,1.13,7.42c2.8,4.63,8.84,6.12,13.47,3.32l0,0c4.63-2.8,6.12-8.84,3.32-13.47
							c-1.35-2.24-3.5-3.82-6.04-4.45C438.51,402.86,437.72,402.77,436.93,402.77z"/>
					</g>
					<g>
						<path class="st2" d="M343.04,333.62l-7.09,4.29l-0.44-0.73l6.45-3.89l-1.01-1.67l0.65-0.39L343.04,333.62z"/>
						<path class="st2" d="M341,344.81l-0.65,0.39l-3.01-4.98l0.52-0.31l4.67,1.2c1.27,0.32,1.84,0.19,2.33-0.11
							c0.82-0.5,0.98-1.38,0.32-2.46c-0.5-0.83-1.14-1.32-1.96-1.46l0.13-0.79c0.98,0.15,1.88,0.82,2.53,1.9
							c0.87,1.44,0.69,2.79-0.5,3.51c-0.68,0.41-1.42,0.57-2.92,0.18l-3.83-0.98L341,344.81z"/>
						<path class="st2" d="M346.73,351.55l-0.86-1.42l-1.86,1.13l-0.44-0.73l1.87-1.13l-2.42-4l0.53-0.32l6.97,0.92l0.49,0.81
							l-6.77-0.86l1.86,3.08l1.64-0.99l0.43,0.71l-1.64,0.99l0.86,1.42L346.73,351.55z"/>
						<path class="st2" d="M353.3,362.42l-0.86-1.42l-1.86,1.13l-0.44-0.73l1.87-1.13l-2.42-4l0.53-0.32l6.97,0.92l0.49,0.81
							l-6.77-0.86l1.86,3.08l1.64-0.99l0.43,0.71l-1.64,0.99l0.86,1.42L353.3,362.42z"/>
						<path class="st2" d="M357.27,368.49c-1.21,0.73-2.66,0.46-3.71-1.28c-0.62-1.02-0.85-2.21-0.62-3.09l0.79,0
							c-0.2,0.74-0.06,1.76,0.5,2.67c0.73,1.21,1.7,1.49,2.56,0.97c0.91-0.55,1.14-1.46,0.05-3.27l-0.91-1.51l3.78-1.79l2.35,3.88
							l-0.65,0.39l-1.96-3.24l-2.41,1.12l0.55,0.91C358.88,366.41,358.53,367.73,357.27,368.49z"/>
						<path class="st2" d="M361.54,375.48c-1.33,0.8-2.81,0.27-3.64-1.11c-1.14-1.88-0.45-3.7,1.79-5.05
							c2.41-1.46,4.46-0.9,5.63,1.03c0.39,0.64,0.64,1.3,0.63,1.92l-0.77,0.06c0.02-0.51-0.18-1.05-0.5-1.58
							c-0.92-1.53-2.5-1.92-4.43-0.76c-0.16,0.1-0.36,0.23-0.56,0.38c0.99-0.12,1.93,0.45,2.53,1.43
							C363.07,373.21,362.84,374.7,361.54,375.48z M361.08,374.78c0.93-0.56,1.11-1.61,0.45-2.71c-0.65-1.08-1.77-1.42-2.65-0.89
							c-0.78,0.47-1.13,1.57-0.39,2.79C359.12,375,360.14,375.34,361.08,374.78z"/>
						<path class="st2" d="M367.32,385.24c-1.19,0.72-2.62,0.41-3.65-1.31c-0.62-1.02-0.86-2.22-0.63-3.1l0.79,0
							c-0.2,0.74-0.05,1.77,0.51,2.7c0.71,1.18,1.65,1.49,2.53,0.96c0.85-0.51,1.05-1.45,0.25-2.77l-0.31-0.51l0.54-0.32l3.65,0.48
							l-2.19-3.63l0.65-0.39l2.76,4.56l-0.52,0.31l-3.74-0.48C368.8,383.31,368.46,384.55,367.32,385.24z"/>
						<path class="st2" d="M371.7,392.31c-1.33,0.8-2.81,0.27-3.64-1.11c-1.14-1.88-0.45-3.7,1.79-5.05
							c2.41-1.46,4.46-0.9,5.63,1.03c0.39,0.64,0.64,1.3,0.63,1.92l-0.77,0.06c0.02-0.51-0.18-1.05-0.5-1.58
							c-0.92-1.53-2.5-1.92-4.43-0.76c-0.16,0.1-0.36,0.23-0.56,0.38c1-0.12,1.93,0.45,2.53,1.43
							C373.24,390.04,373,391.52,371.7,392.31z M371.25,391.6c0.93-0.56,1.11-1.61,0.45-2.71c-0.66-1.08-1.77-1.42-2.65-0.89
							c-0.78,0.47-1.13,1.57-0.39,2.79C369.28,391.82,370.31,392.17,371.25,391.6z"/>
						<path class="st2" d="M380.62,395.83l-0.52,0.31l-8.37,1l-0.48-0.79l8.21-0.98l-2.21-3.65l-1.33,0.8l-0.43-0.72l1.98-1.19
							L380.62,395.83z"/>
						<path class="st2" d="M386.75,405.97l-0.52,0.31l-8.37,1l-0.48-0.79l8.21-0.98l-2.2-3.65l-1.33,0.8l-0.43-0.72l1.98-1.19
							L386.75,405.97z"/>
						<path class="st2" d="M385.85,416.05c-1.26,0.76-2.68,0.17-3.7-1.53c-1.03-1.7-0.87-3.21,0.38-3.97
							c0.85-0.51,1.74-0.39,2.57,0.31c-0.15-0.89,0.15-1.61,0.89-2.06c1.16-0.7,2.47-0.15,3.38,1.35c0.91,1.5,0.79,2.94-0.36,3.64
							c-0.74,0.45-1.52,0.37-2.25-0.19C387,414.68,386.7,415.54,385.85,416.05z M385.41,415.29c0.87-0.53,0.97-1.61,0.21-2.86
							c-0.76-1.26-1.75-1.67-2.63-1.14c-0.88,0.53-0.98,1.6-0.22,2.86C383.53,415.4,384.53,415.82,385.41,415.29z M386.2,412.08
							c0.67,1.1,1.56,1.46,2.33,1c0.8-0.48,0.87-1.48,0.22-2.54c-0.65-1.07-1.54-1.46-2.34-0.98
							C385.63,410.02,385.53,410.97,386.2,412.08z"/>
						<path class="st2" d="M391.65,421.95c-2.41,1.46-4.47,0.9-5.63-1.03c-0.39-0.64-0.64-1.3-0.63-1.91l0.76-0.06
							c-0.02,0.51,0.18,1.05,0.5,1.58c0.92,1.53,2.5,1.92,4.43,0.75c0.16-0.1,0.36-0.23,0.56-0.38c-1,0.12-1.93-0.45-2.53-1.43
							c-0.85-1.41-0.61-2.89,0.68-3.68c1.33-0.8,2.81-0.27,3.64,1.11C394.58,418.79,393.89,420.6,391.65,421.95z M392.45,420.1
							c0.78-0.47,1.13-1.57,0.39-2.79c-0.62-1.02-1.64-1.37-2.59-0.8c-0.93,0.56-1.12,1.61-0.45,2.71
							C390.45,420.3,391.57,420.63,392.45,420.1z"/>
						<path class="st2" d="M399.48,427.04l-7.09,4.29l-0.44-0.73l6.45-3.89l-1.01-1.67l0.65-0.39L399.48,427.04z"/>
						<path class="st2" d="M397.45,438.23l-0.65,0.39l-3.01-4.98l0.52-0.31l4.67,1.2c1.27,0.32,1.84,0.19,2.33-0.11
							c0.82-0.5,0.98-1.38,0.32-2.46c-0.5-0.83-1.14-1.32-1.96-1.46l0.13-0.79c0.98,0.16,1.88,0.82,2.53,1.9
							c0.87,1.44,0.69,2.79-0.5,3.51c-0.68,0.41-1.42,0.56-2.92,0.18l-3.83-0.98L397.45,438.23z"/>
						<path class="st2" d="M402.68,443.76c-1.19,0.72-2.62,0.41-3.65-1.31c-0.62-1.02-0.86-2.22-0.63-3.1l0.79,0
							c-0.2,0.74-0.05,1.77,0.51,2.7c0.71,1.18,1.65,1.49,2.53,0.96c0.85-0.51,1.05-1.45,0.25-2.77l-0.31-0.51l0.54-0.32l3.65,0.48
							l-2.19-3.63l0.65-0.39l2.75,4.56l-0.52,0.31l-3.74-0.48C404.16,441.83,403.82,443.07,402.68,443.76z"/>
					</g>
					<g>
						
							<rect x="376.25" y="389.75" transform="matrix(0.8559 -0.5172 0.5172 0.8559 -164.2541 256.4752)" class="st2" width="3.6" height="66.41"/>
					</g>
					<g>
						
							<rect x="378.46" y="423.48" transform="matrix(0.8559 -0.5172 0.5172 0.8559 -173.0151 260.1418)" class="st2" width="3.6" height="34.06"/>
					</g>
					<g>
						<path class="st1" d="M358.34,345.12l-9.28-15.35c-1.42-2.35-0.66-5.4,1.68-6.82l9.32-5.63c2.35-1.42,5.4-0.66,6.82,1.68
							l9.27,15.35c1.42,2.35,0.66,5.4-1.68,6.81l-9.32,5.63C362.81,348.22,359.76,347.47,358.34,345.12z"/>
					</g>
					<g>
						<path class="st0" d="M351.43,322.54l1.14-0.69l7.42,12.28c0.86,1.42,2.71,1.87,4.12,1.02c1.42-0.86,1.88-2.73,1.02-4.12
							l-7.42-12.28l1.14-0.69l7.42,12.28c1.24,2.05,0.58,4.72-1.47,5.96c-2.05,1.24-4.72,0.58-5.96-1.47L351.43,322.54z"/>
					</g>
					<g>
						
							<rect x="366.34" y="335.01" transform="matrix(0.8564 -0.5164 0.5164 0.8564 -122.8172 238.332)" class="st0" width="1.34" height="9.85"/>
					</g>
					<g>
						
							<rect x="360.74" y="337.9" transform="matrix(0.5171 0.8559 -0.8559 0.5171 483.3644 -174.7727)" class="st2" width="71.66" height="6.15"/>
					</g>
				</g>
			</g>
		</g>
	</g>
	<g>
		<g>
			<g>
				<path class="st3" d="M209.3,33.61c-0.76,10.8,0.01,30.91-3.93,41c-3.94,10.09-9.18,20.48-19.02,24.99
					c-12.12,5.56-26.36,3.2-39.29,6.46c-20.27,5.1-34.92,23.69-41.17,43.63c-6.26,19.94-5.56,41.3-4.81,62.19l103.43,14.35
					c0,0,0.54-42.03,9.56-53.5c9.02-11.47,51.87-21.79,66.02-53.21c12.74-28.27,16.58-73.1,16.58-73.1L209.3,33.61z"/>
			</g>
		</g>
		<g>
			<path class="st1" d="M234.56,62.01l-1.33-2.47c-0.18,0-0.37-0.01-0.57-0.04l-1.9-0.23l-0.28,2.24l-0.75-0.09l0.87-7.06l2.64,0.33
				c1.79,0.22,2.77,1.26,2.58,2.78c-0.14,1.11-0.82,1.81-1.89,2.02l1.42,2.63L234.56,62.01z M235.09,57.37
				c0.14-1.13-0.53-1.87-1.94-2.04l-1.88-0.23l-0.44,3.54l1.88,0.23C234.13,59.04,234.95,58.48,235.09,57.37z"/>
			<path class="st1" d="M242.1,62.29l-0.08,0.65l-4.99-0.62l0.87-7.06l4.84,0.6l-0.08,0.65l-4.09-0.51l-0.31,2.51l3.65,0.45
				l-0.08,0.64l-3.65-0.45l-0.32,2.62L242.1,62.29z"/>
			<path class="st1" d="M243.54,59.54c0.26-2.07,2.02-3.4,4.15-3.13c1.03,0.13,1.91,0.58,2.46,1.35l-0.53,0.42
				c-0.5-0.66-1.18-1-1.98-1.09c-1.71-0.21-3.14,0.88-3.35,2.56c-0.21,1.67,0.92,3.08,2.62,3.29c0.81,0.1,1.54-0.06,2.19-0.59
				l0.41,0.53c-0.71,0.61-1.68,0.85-2.72,0.72C244.68,63.32,243.29,61.6,243.54,59.54z"/>
			<path class="st1" d="M256.06,64.01l-0.08,0.65l-4.99-0.62l0.87-7.06l4.84,0.6l-0.08,0.65l-4.09-0.51l-0.31,2.51l3.65,0.45
				l-0.08,0.64l-3.65-0.45l-0.32,2.62L256.06,64.01z"/>
			<path class="st1" d="M258.61,57.81l0.75,0.09l-0.87,7.06l-0.75-0.09L258.61,57.81z"/>
			<path class="st1" d="M266.88,61.29c-0.19,1.5-1.39,2.28-3.18,2.05l-1.9-0.23l-0.28,2.23l-0.75-0.09l0.87-7.06l2.64,0.33
				C266.09,58.74,267.07,59.78,266.88,61.29z M266.13,61.2c0.14-1.13-0.53-1.87-1.94-2.04l-1.88-0.23l-0.44,3.53l1.88,0.23
				C265.17,62.87,265.99,62.31,266.13,61.2z"/>
			<path class="st1" d="M269.85,59.86l-2.48-0.31l0.08-0.65l5.71,0.71l-0.08,0.65l-2.48-0.31l-0.79,6.41l-0.75-0.09L269.85,59.86z"
				/>
		</g>
		<g>
			<g>
				<path class="st1" d="M258.68,79.25c-0.02,0.14-9.44-1.02-21.04-2.6c-11.6-1.58-20.99-2.98-20.97-3.12
					c0.02-0.14,9.44,1.02,21.04,2.61C249.3,77.71,258.69,79.11,258.68,79.25z"/>
			</g>
		</g>
		<g>
			<g>
				<path class="st1" d="M257.54,87.67c-0.02,0.14-9.44-1.02-21.04-2.6c-11.6-1.58-20.99-2.98-20.97-3.12
					c0.02-0.14,9.44,1.02,21.04,2.61C248.17,86.13,257.56,87.53,257.54,87.67z"/>
			</g>
		</g>
		<g>
			<g>
				<path class="st1" d="M253.69,96.26c-0.02,0.14-9.44-1.02-21.04-2.6c-11.6-1.58-20.99-2.98-20.97-3.12
					c0.02-0.14,9.44,1.02,21.04,2.61C244.32,94.72,253.71,96.12,253.69,96.26z"/>
			</g>
		</g>
		<g>
			<g>
				<path class="st1" d="M246.68,104.92c-0.02,0.14-9.44-1.02-21.04-2.6c-11.6-1.58-20.99-2.98-20.97-3.12
					c0.02-0.14,9.44,1.02,21.04,2.61C237.31,103.38,246.7,104.78,246.68,104.92z"/>
			</g>
		</g>
		<g>
			<g>
				<path class="st1" d="M235.51,113.57c-0.02,0.14-9.44-1.02-21.04-2.61c-11.6-1.58-20.99-2.98-20.97-3.12
					c0.02-0.14,9.44,1.02,21.04,2.61C226.14,112.03,235.53,113.42,235.51,113.57z"/>
			</g>
		</g>
		<g>
			<g>
				<path class="st1" d="M277.51,82.06c-0.02,0.14-2.34-0.12-5.17-0.58c-2.83-0.46-5.11-0.95-5.09-1.09
					c0.02-0.14,2.34,0.12,5.17,0.58C275.26,81.43,277.54,81.92,277.51,82.06z"/>
			</g>
		</g>
		<g>
			<g>
				<path class="st1" d="M277.15,89.57c-0.02,0.14-2.34-0.12-5.17-0.58c-2.83-0.46-5.11-0.95-5.09-1.09
					c0.02-0.14,2.34,0.12,5.17,0.58C274.89,88.94,277.17,89.43,277.15,89.57z"/>
			</g>
		</g>
		<g>
			<g>
				<path class="st1" d="M274.6,99.96c-0.02,0.14-2.34-0.13-5.18-0.6c-2.83-0.47-5.14-0.96-5.08-1.07
					c-0.02-0.18,2.34,0.09,5.17,0.56C272.34,99.31,274.62,99.82,274.6,99.96z"/>
			</g>
		</g>
		<g>
			<g>
				<path class="st1" d="M270.92,108.75c-0.02,0.14-2.34-0.13-5.18-0.6c-2.83-0.47-5.14-0.96-5.08-1.07
					c-0.02-0.18,2.34,0.09,5.17,0.56C268.66,108.1,270.95,108.61,270.92,108.75z"/>
			</g>
		</g>
		<g>
			<g>
				<path class="st1" d="M263.01,117.1c-0.02,0.14-2.34-0.13-5.18-0.6c-2.83-0.47-5.14-0.96-5.08-1.07
					c-0.02-0.18,2.34,0.09,5.17,0.56C260.75,116.46,263.03,116.96,263.01,117.1z"/>
			</g>
		</g>
		<g>
			<g>
				<path class="st1" d="M225.96,124.13c-0.02,0.14-14.16-1.74-31.59-4.21c-17.43-2.47-31.54-4.58-31.52-4.72
					c0.02-0.14,14.16,1.74,31.59,4.21C211.87,121.87,225.98,123.99,225.96,124.13z"/>
			</g>
		</g>
		<g>
			<g>
				<path class="st1" d="M218.66,132.97c0,0.02-0.24,0-0.7-0.06c-0.51-0.07-1.17-0.15-1.99-0.26c-1.78-0.26-4.26-0.62-7.3-1.06
					c-6.21-0.96-14.69-2.26-24.06-3.71c-9.39-1.48-17.89-2.86-24.03-3.88c-3.03-0.52-5.49-0.95-7.27-1.25
					c-0.86-0.16-1.52-0.28-1.97-0.38c-0.45-0.1-0.68-0.16-0.68-0.18c0.01-0.02,0.25,0.01,0.7,0.07c0.51,0.07,1.16,0.16,1.98,0.28
					c1.78,0.27,4.26,0.64,7.3,1.09c6.21,0.96,14.69,2.28,24.06,3.73c9.36,1.5,17.83,2.86,24.03,3.86c3.03,0.51,5.5,0.93,7.28,1.23
					c0.82,0.15,1.47,0.27,1.97,0.36C218.43,132.89,218.66,132.95,218.66,132.97z"/>
			</g>
		</g>
		<g>
			<g>
				<path class="st1" d="M205.46,141.06c0.09,0.09-0.92-0.02-2.6-0.23c-1.7-0.22-4.15-0.56-7.17-0.99
					c-6.05-0.88-14.4-2.14-23.61-3.59c-9.22-1.44-17.56-2.78-23.59-3.78c-2.97-0.5-5.39-0.91-7.14-1.21
					c-0.8-0.15-1.44-0.26-1.94-0.36c-0.44-0.09-0.67-0.14-0.67-0.16c0-0.02,0.24,0,0.69,0.06c0.5,0.07,1.15,0.15,1.95,0.26
					c1.75,0.26,4.18,0.61,7.16,1.05c6.1,0.94,14.42,2.22,23.61,3.63c9.18,1.46,17.5,2.77,23.59,3.74
					C201.25,140.37,204.18,140.85,205.46,141.06z"/>
			</g>
		</g>
		<g>
			<g>
				<path class="st1" d="M249.79,128.99c-0.02,0.14-2.34-0.13-5.18-0.6c-2.83-0.47-5.14-0.96-5.08-1.07
					c-0.02-0.18,2.34,0.09,5.17,0.56C247.54,128.34,249.82,128.85,249.79,128.99z"/>
			</g>
		</g>
		<g>
			<g>
				<path class="st1" d="M239.6,134.66c-0.02,0.14-2.34-0.13-5.18-0.6c-2.83-0.47-5.14-0.96-5.08-1.07
					c-0.02-0.18,2.34,0.09,5.17,0.56C237.35,134.01,239.63,134.52,239.6,134.66z"/>
			</g>
		</g>
		<g>
			<g>
				<path class="st1" d="M225.88,144.21c-0.02,0.14-2.34-0.13-5.18-0.6c-2.83-0.47-5.14-0.96-5.08-1.07
					c-0.02-0.18,2.34,0.09,5.17,0.56C223.63,143.57,225.91,144.07,225.88,144.21z"/>
			</g>
		</g>
		<g>
			<g>
				<path class="st1" d="M199.66,159.29c-0.02,0.14-17.5-2.43-39.04-5.74c-21.54-3.31-38.99-6.12-38.96-6.26
					c0.02-0.14,17.5,2.43,39.04,5.74C182.23,156.35,199.68,159.15,199.66,159.29z"/>
			</g>
		</g>
		<g>
			<g>
				<path class="st1" d="M189.19,178.22c-0.02,0.14-5.75-0.67-12.8-1.81c-7.05-1.14-12.74-2.18-12.71-2.32
					c0.02-0.14,5.75,0.67,12.8,1.81C183.52,177.03,189.21,178.07,189.19,178.22z"/>
			</g>
		</g>
	</g>
</g>
<g id="Background_Simple" class="st4">
	<path class="st5" d="M439.53,142.26c-12.17-30.48-32.85-58.61-61.86-73.96c-29.01-15.35-66.91-15.8-93.24,3.8
		c-40.19,29.93-46.03,96.75-92.73,114.92c-19.73,7.68-41.93,4.13-62.79,7.77c-47.91,8.36-83.24,58.49-78.69,106.91
		c4.55,48.42,40.84,93.62,87.71,106.61c107.21,29.71,190.92,9.97,250.58-44.35S469.45,217.19,439.53,142.26z"/>
</g>
<g id="Floor">
	<g>
		<g>
			<path class="st6" d="M465.41,463.75c0,0.14-96.45,0.26-215.4,0.26c-118.99,0-215.43-0.12-215.43-0.26s96.43-0.26,215.43-0.26
				C368.96,463.49,465.41,463.61,465.41,463.75z"/>
		</g>
	</g>
</g>
<g id="Character">
	<g>
		<g>
			<path class="st7" d="M141.49,124.52l0.08,4.01c0,0,1.63,31.01,1.53,35.66c-0.1,4.64-15.65,31.25-15.65,31.25l9.5,15.56
				l22.81-41.01L154.29,126l-0.13-1.09"/>
		</g>
		<g>
			<g>
				<g>
					<path class="st7" d="M153.07,119.73c-0.08-0.33-3.12-11.3-3.12-11.3l-12.05,6.95c-0.02,1.01,3.59,9.14,3.59,9.14l2.08,2.15
						c0,0,10.42-1.1,10.65-1.21C154.45,125.36,153.07,119.73,153.07,119.73z"/>
				</g>
				<g>
					<g>
						<g>
							<path class="st7" d="M150.37,109.24c0.02,0.01,0.07,0.09,0.12,0.24c0.46,1.22,1.79,6.73,1.18,7.14
								c-0.68,0.46-2.67,0.51-2.98-0.18c-0.32-0.69-1.47-6.98-1.47-6.98s-0.12-1.01,1.46-1.66
								C149.65,107.39,150.37,109.24,150.37,109.24z"/>
						</g>
						<g>
							<path class="st7" d="M146.57,108.12c0.02,0.01,0.07,0.09,0.12,0.24c0.46,1.22,1.79,6.73,1.18,7.14
								c-0.68,0.46-2.67,0.51-2.98-0.18c-0.32-0.69-1.47-6.98-1.47-6.98s-0.12-1.01,1.46-1.66
								C145.85,106.26,146.57,108.12,146.57,108.12z"/>
						</g>
						<g>
							<path class="st7" d="M143.1,107.96c0.02,0.01,0.07,0.09,0.12,0.24c0.46,1.22,1.79,6.73,1.18,7.14
								c-0.68,0.46-2.67,0.51-2.98-0.18c-0.32-0.69-1.47-6.98-1.47-6.98s-0.12-1.01,1.46-1.66
								C142.38,106.11,143.1,107.96,143.1,107.96z"/>
						</g>
						<g>
							<path class="st7" d="M139.66,107.86c0.02,0.01,0.07,0.09,0.12,0.24c0.46,1.22,1.79,6.73,1.18,7.14
								c-0.68,0.46-2.67,0.51-2.98-0.18c-0.32-0.69-1.47-6.98-1.47-6.98s-0.12-1.01,1.46-1.66
								C138.94,106.01,139.66,107.86,139.66,107.86z"/>
						</g>
						<g>
							<g>
								<path class="st8" d="M148.25,114.84c0.09-0.03-0.1-1.26-0.43-2.74c-0.33-1.48-0.67-2.65-0.77-2.62
									c-0.09,0.03,0.1,1.26,0.43,2.74C147.82,113.7,148.16,114.87,148.25,114.84z"/>
							</g>
						</g>
						<g>
							<g>
								<path class="st8" d="M145.02,115.69c0.1-0.02-0.2-1.76-0.67-3.88c-0.47-2.12-0.92-3.82-1.02-3.8
									c-0.1,0.02,0.2,1.76,0.67,3.88C144.47,114.01,144.93,115.71,145.02,115.69z"/>
							</g>
						</g>
						<g class="st9">
							<g>
								<path class="st8" d="M141.67,116.27c0.1-0.02-0.2-1.76-0.67-3.88c-0.47-2.12-0.92-3.82-1.02-3.8
									c-0.1,0.02,0.2,1.76,0.67,3.88C141.11,114.59,141.57,116.29,141.67,116.27z"/>
							</g>
						</g>
					</g>
					<g>
						<g>
							<path class="st7" d="M144.27,123.42l-3.64-2.94c-1.59-1.29-2.63-3.14-2.89-5.17l-0.2-1.55l10.94-2.21c0,0,0.05,4.09-3.1,4.14
								l3.87,1.96L144.27,123.42z"/>
						</g>
					</g>
				</g>
				<g>
					<g>
						<path class="st8" d="M148.78,118.47c-0.05,0.03-0.29-0.45-0.95-1.06c-0.64-0.6-1.81-1.33-3.35-1.35l-1.17-0.01l1.1-0.41
							c0.79-0.29,1.64-0.61,2.55-0.94l-0.05,0.02c0.92-0.57,1.74-1.62,1.59-2.83c-0.01-0.09-0.03-0.2-0.05-0.26l0.31,0.17
							c-3.07,0.76-5.85,1.4-7.88,1.75c-1.02,0.18-1.84,0.29-2.41,0.36c-0.57,0.06-0.89,0.08-0.9,0.04
							c-0.01-0.07,1.23-0.31,3.24-0.76c2.01-0.44,4.76-1.13,7.83-1.89l0.24-0.06l0.07,0.23c0.04,0.13,0.06,0.23,0.07,0.36
							c0.09,0.72-0.1,1.44-0.47,2c-0.36,0.58-0.86,0.99-1.37,1.32l-0.02,0.02l-0.03,0.01c-0.91,0.31-1.77,0.61-2.57,0.89l-0.07-0.42
							c1.69,0.07,2.89,0.93,3.51,1.61C148.65,117.93,148.81,118.46,148.78,118.47z"/>
					</g>
				</g>
				<g>
					<g>
						<path class="st8" d="M148.11,113.38c0.09-0.05,0.27,0.49,0.83,1c0.28,0.23,0.75,0.39,1.1,0.16c0.37-0.24,0.54-0.77,0.49-1.36
							c-0.13-1.24-0.2-2.4-0.31-3.2c-0.11-0.81-0.24-1.31-0.17-1.34c0.06-0.02,0.31,0.44,0.53,1.26c0.22,0.83,0.34,1.96,0.47,3.25
							c0.06,0.66-0.14,1.45-0.76,1.8c-0.65,0.36-1.29,0.01-1.59-0.3c-0.32-0.34-0.45-0.68-0.52-0.9
							C148.1,113.53,148.08,113.4,148.11,113.38z"/>
					</g>
				</g>
			</g>
		</g>
	</g>
	<g>
		<g>
			<path class="st6" d="M110.73,149.66c2.66-0.16,5.13,1.46,6.97,3.4c1.84,1.94,3.26,4.24,5.16,6.11c1.42,1.39,3.14,2.59,4,4.38
				c1.37,2.86,0.22,6.55,1.95,9.2c0.97,1.5,2.69,2.37,3.7,3.85c1.26,1.85,1.16,4.27,0.88,6.49c-0.2,1.54-0.51,3.16-1.56,4.3
				c-0.83,0.89-2,1.35-3.15,1.74c-8.66,2.95-18.24,3.16-27.02,0.58"/>
		</g>
		<g>
			<g>
				<path class="st7" d="M92.4,167.49c-0.96-7.66,4.58-14.65,12.35-15.39c7.33-0.7,13.84,4.76,14.94,12.04
					c0.96,6.38,1.79,12.82,1.76,15.16c-0.09,7.05-4.22,9.8-5.89,10.62c-0.38,0.19-1.43,0.4-1.86,0.46l0,0
					c-0.03,0-0.04,0.03-0.04,0.05l1.57,8.1c0.71,5.31-2.25,10.04-7.55,10.81c-5.31,0.77-9.47-3.3-10.28-8.61L92.4,167.49z"/>
			</g>
			<g>
				<g>
					<g>
						<g>
							<g>
								<g>
									<path class="st6" d="M118.47,168.26c-0.12,0.16-1.05-0.33-2.24-0.16c-1.19,0.16-1.98,0.9-2.13,0.77
										c-0.07-0.06,0.03-0.34,0.37-0.67c0.34-0.33,0.94-0.69,1.68-0.8c0.74-0.1,1.41,0.08,1.81,0.31
										C118.37,167.94,118.53,168.18,118.47,168.26z"/>
								</g>
							</g>
						</g>
					</g>
				</g>
			</g>
			<g>
				<g>
					<g>
						<g>
							<g>
								<g>
									<path class="st6" d="M107.85,170.56c-0.12,0.16-1.05-0.33-2.24-0.16c-1.19,0.16-1.98,0.9-2.13,0.77
										c-0.07-0.06,0.03-0.34,0.37-0.67c0.34-0.33,0.94-0.69,1.68-0.8c0.74-0.1,1.41,0.08,1.81,0.31
										C107.74,170.24,107.91,170.48,107.85,170.56z"/>
								</g>
							</g>
						</g>
					</g>
				</g>
			</g>
			<g>
				<g>
					<g>
						<g>
							<g>
								<path class="st6" d="M111.98,176.2c-0.02-0.07,0.71-0.3,1.89-0.63c0.3-0.08,0.58-0.18,0.6-0.39
									c0.04-0.23-0.14-0.54-0.34-0.87c-0.39-0.7-0.81-1.43-1.24-2.19c-1.73-3.12-3.04-5.71-2.91-5.78
									c0.13-0.07,1.63,2.41,3.37,5.53c0.42,0.77,0.82,1.51,1.2,2.21c0.17,0.33,0.42,0.69,0.33,1.17
									c-0.05,0.24-0.25,0.44-0.44,0.52c-0.19,0.09-0.36,0.12-0.51,0.15C112.74,176.15,111.99,176.27,111.98,176.2z"/>
							</g>
						</g>
					</g>
				</g>
			</g>
			<g>
				<g>
					<g>
						<g>
							<path class="st8" d="M113.65,190.39c0,0-4.56,1.05-10.83-1.58c0,0,2.71,5.83,11.25,3.76L113.65,190.39z"/>
						</g>
					</g>
				</g>
			</g>
			<g>
				<g>
					<g>
						<g>
							<path class="st8" d="M111.89,179.15c-0.51-0.51-1.31-0.71-2.05-0.52c-0.51,0.13-1,0.46-1.25,0.93
								c-0.25,0.47-0.23,1.08,0.11,1.44c0.39,0.41,1.08,0.41,1.62,0.17c0.55-0.25,0.98-0.69,1.39-1.13c0.11-0.12,0.23-0.25,0.29-0.4
								c0.06-0.15,0.05-0.34-0.07-0.44"/>
						</g>
					</g>
				</g>
			</g>
			<g>
				<g>
					<g>
						<g>
							<g>
								<path class="st6" d="M108.59,177.54c0.19-0.04,0.38,1.26,1.63,2.01c1.24,0.76,2.6,0.41,2.64,0.59
									c0.03,0.08-0.27,0.3-0.85,0.4c-0.57,0.1-1.43,0.04-2.19-0.42c-0.76-0.47-1.16-1.18-1.28-1.7
									C108.4,177.89,108.5,177.55,108.59,177.54z"/>
							</g>
						</g>
					</g>
				</g>
			</g>
			<g>
				<g>
					<g>
						<g>
							<path class="st6" d="M107.03,166.67c-0.07,0.34-1.29,0.36-2.66,0.73c-1.38,0.35-2.45,0.92-2.68,0.66
								c-0.1-0.13,0.05-0.46,0.46-0.84c0.41-0.38,1.09-0.78,1.91-1c0.83-0.21,1.62-0.19,2.16-0.06
								C106.76,166.29,107.05,166.51,107.03,166.67z"/>
						</g>
					</g>
				</g>
			</g>
			<g>
				<g>
					<g>
						<g>
							<path class="st6" d="M117.27,164.58c-0.17,0.3-1.03,0.14-2.03,0.27c-1,0.1-1.8,0.45-2.03,0.19c-0.1-0.13-0.01-0.42,0.32-0.73
								c0.32-0.31,0.9-0.61,1.58-0.68c0.68-0.08,1.31,0.08,1.69,0.31C117.18,164.17,117.34,164.43,117.27,164.58z"/>
						</g>
					</g>
				</g>
			</g>
		</g>
		<g>
			<path class="st6" d="M121.07,162.55c-1.46,2.23-6.09,0.85-8.89-0.68c-2.95,1.95-7.04,1.11-9.08-1.88
				c-1.6,2.04-4.85,1.37-6.04-0.93c-1.19-2.3-0.52-5.46,1.11-7.47c1.63-2.01,4.01-3.03,6.36-3.46c5.58-1.03,11.65,1.13,14.99,6.18
				C121.06,156.63,121.99,159.76,121.07,162.55"/>
		</g>
		<g>
			<path class="st6" d="M98.59,151.43c-5.25-1-10.31,4.23-10.84,7.97c-0.91,6.5-0.03,7.31-1.22,10.42c-0.77,2.02-3.44,4.1-4.49,6.18
				c-1.13,2.24-1.13,6.03-0.34,8.42c0.66,2.01,3.37,7.63,3.37,7.63s7.81-0.26,11.8-1.28c1-0.25,2.06-0.63,2.82-1.32
				c0.76-0.69-0.81-3.07-0.66-4.08c0.41-2.88,2.57-4.54,1.95-7.39c-0.82-3.77-3.79-3.97-3.72-7.83c0.03-2.05,3.09-4.99,3.37-7.02
				C100.89,161.12,102.07,154.05,98.59,151.43"/>
		</g>
		<g>
			<g>
				<path class="st10" d="M89.71,192.29c0.03-0.03-0.38-0.44-1.04-1.24c-0.65-0.8-1.55-2.01-2.32-3.69
					c-0.75-1.66-1.37-3.84-1.14-6.26c0.22-2.38,1.28-5.04,3.45-6.8c1.08-0.88,2.32-1.54,3.37-2.42c1.08-0.85,1.83-2.06,2.19-3.26
					c0.38-1.2,0.5-2.38,0.65-3.46c0.14-1.08,0.3-2.08,0.6-2.95c0.55-1.76,1.74-2.82,2.67-3.21c0.94-0.41,1.55-0.26,1.55-0.32
					c0-0.01-0.14-0.05-0.42-0.06c-0.28-0.01-0.7,0.03-1.2,0.22c-0.99,0.35-2.3,1.45-2.91,3.27c-0.32,0.89-0.51,1.92-0.67,3
					c-0.16,1.08-0.3,2.24-0.67,3.39c-0.35,1.15-1.04,2.23-2.07,3.04c-1.01,0.84-2.24,1.49-3.37,2.41c-2.29,1.86-3.38,4.64-3.58,7.11
					c-0.22,2.51,0.45,4.75,1.26,6.44c0.82,1.7,1.78,2.9,2.48,3.67c0.35,0.39,0.64,0.67,0.85,0.86
					C89.59,192.22,89.7,192.31,89.71,192.29z"/>
			</g>
		</g>
		<g>
			<g>
				<path class="st10" d="M127.87,188.9c0.01,0.01,0.08-0.09,0.2-0.28c0.12-0.19,0.27-0.49,0.44-0.88c0.33-0.78,0.68-2,0.68-3.54
					c0.01-1.53-0.36-3.4-1.47-5.14c-0.54-0.88-1.28-1.64-1.97-2.47c-0.69-0.82-1.33-1.74-1.56-2.82c-0.47-2.19,0.25-4.4,0.1-6.44
					c-0.07-2.03-0.64-3.84-1.44-5.15c-0.79-1.32-1.75-2.17-2.44-2.65c-0.35-0.24-0.63-0.41-0.84-0.51c-0.2-0.1-0.31-0.15-0.31-0.14
					c-0.02,0.04,0.39,0.27,1.04,0.79c0.65,0.52,1.54,1.38,2.27,2.67c0.74,1.29,1.25,3.03,1.3,5c0.04,0.98-0.08,2.01-0.19,3.1
					c-0.11,1.08-0.21,2.25,0.06,3.43c0.26,1.19,0.96,2.18,1.67,3.01c0.71,0.84,1.44,1.58,1.96,2.41c1.07,1.64,1.46,3.44,1.5,4.91
					c0.04,1.49-0.25,2.69-0.52,3.47C128.06,188.47,127.83,188.88,127.87,188.9z"/>
			</g>
		</g>
		<g>
			<g>
				<path class="st10" d="M105.66,148.92c0.01,0.1,1.32-0.15,3.38,0.19c2.03,0.34,4.88,1.4,7.01,3.77c2.08,2.41,3.02,5.26,3.37,7.3
					c0.35,2.07,0.08,3.37,0.17,3.38c0.03,0,0.11-0.31,0.19-0.91c0.07-0.59,0.09-1.46-0.04-2.52c-0.27-2.1-1.18-5.05-3.34-7.56
					c-2.23-2.48-5.21-3.52-7.31-3.79c-1.06-0.14-1.93-0.11-2.52-0.04C105.97,148.81,105.65,148.9,105.66,148.92z"/>
			</g>
		</g>
		<g>
			<g>
				<path class="st10" d="M113.2,159.29c0.03,0,0.09-0.28,0.11-0.79c0.03-0.52-0.02-1.27-0.23-2.18c-0.4-1.79-1.69-4.26-4.19-5.74
					c-2.51-1.47-5.3-1.4-7.06-0.88c-0.89,0.25-1.58,0.58-2.01,0.86c-0.44,0.27-0.66,0.46-0.64,0.48c0.05,0.08,0.98-0.61,2.74-1.02
					c1.72-0.42,4.37-0.42,6.74,0.96c2.36,1.4,3.65,3.72,4.11,5.43C113.26,158.14,113.1,159.29,113.2,159.29z"/>
			</g>
		</g>
	</g>
	<g>
		<g>
			<g>
				<g>
					<path class="st11" d="M90.56,238.26c0,0,3.46,7.89,3.26,11.62c-0.2,3.73-3.77,15.85-3.77,15.85l42.29,3.96l0.2-9.78
						l-1.27-40.23l23.58-35.87L137,173.45l-17.34,23.51l-4.39-1.7l-18.97,2.41v3.35l-0.54,0.07c0,0-6.03,1.1-11.82,4.63
						c-6.83,4.17-10.33,12.16-9.06,20.07c0.77,4.8,2.27,10.63,5.15,13.99C85.53,246.22,90.56,238.26,90.56,238.26z"/>
				</g>
			</g>
			<g>
				<path class="st12" d="M84.56,219.48c0,0-2.16-12.28-1.54-13.16c0.75-1.05,9.63-4.87,9.77-4.48l1.95,13.5L84.56,219.48z"/>
			</g>
			<g>
				<polygon class="st12" points="120.6,220.16 119.59,243.71 128.48,243.71 128.48,220.16 				"/>
			</g>
			<g>
				<g>
					<path class="st12" d="M105.89,231.94c-0.01-0.01,0.16-0.02,0.5-0.04c0.4-0.01,0.91-0.02,1.53-0.04
						c1.43-0.02,3.4-0.05,5.85-0.09l0.17,0l0,0.17c0.05,5.66,0.09,14.1,0.09,23.55v0.26l-0.26,0c-0.16,0-0.34,0-0.51,0
						c-2.92,0-5.74-0.01-8.38-0.01l-0.26,0l0.01-0.26c0.34-6.79,0.63-12.68,0.84-16.95c0.12-2.03,0.21-3.68,0.28-4.88
						c0.04-0.52,0.06-0.95,0.09-1.29C105.86,232.07,105.88,231.93,105.89,231.94c0.01,0.01,0.01,0.18,0.01,0.49
						c-0.01,0.36-0.01,0.8-0.02,1.34c-0.03,1.22-0.08,2.88-0.14,4.94c-0.15,4.23-0.36,10.07-0.61,16.8l-0.25-0.26
						c2.63,0,5.46-0.01,8.38-0.01c0.18,0,0.35,0,0.51,0l-0.26,0.26c0-9.45,0.04-17.9,0.09-23.55l0.17,0.17
						c-2.4-0.04-4.34-0.07-5.75-0.09c-0.64-0.02-1.16-0.03-1.57-0.04C106.09,231.96,105.9,231.95,105.89,231.94z"/>
				</g>
			</g>
			<g>
				<polygon class="st12" points="140.18,205.58 130.8,199.66 139.04,187.63 148.65,193.21 				"/>
			</g>
			<g class="st13">
				<rect x="103.27" y="206.31" class="st2" width="27.53" height="8.93"/>
			</g>
			<g>
				<g>
					<path class="st6" d="M130.4,230.6c-0.04-0.01-0.02-0.3,0.05-0.83c0.07-0.52,0.15-1.28,0.24-2.22c0.17-1.88,0.26-4.48,0-7.34
						c-0.27-2.86-0.83-5.4-1.34-7.22c-0.51-1.81-0.92-2.91-0.84-2.94c0.03-0.01,0.17,0.25,0.39,0.73c0.22,0.48,0.5,1.2,0.8,2.1
						c0.61,1.8,1.24,4.38,1.51,7.28c0.26,2.9,0.11,5.55-0.16,7.43c-0.13,0.94-0.27,1.7-0.4,2.22
						C130.52,230.33,130.43,230.61,130.4,230.6z"/>
				</g>
			</g>
		</g>
		<g>
			<g>
				<path class="st12" d="M143.75,177.36c0.05,0.05-0.56,0.83-1.61,2.07c-1.04,1.23-2.51,2.91-4.16,4.74
					c-0.62,0.68-1.21,1.34-1.77,1.95l-0.15,0.16l-0.18-0.12c-1.51-1.03-2.8-1.92-3.71-2.58c-0.9-0.65-1.42-1.06-1.39-1.11
					c0.03-0.05,0.61,0.27,1.56,0.85c0.95,0.58,2.28,1.43,3.81,2.42l-0.32,0.04c0.55-0.62,1.14-1.28,1.75-1.96
					c1.64-1.83,3.16-3.47,4.27-4.64C142.98,178.02,143.69,177.32,143.75,177.36z"/>
			</g>
		</g>
		<g>
			<g>
				<path class="st6" d="M153.47,185.87c-0.03,0.06-1.09-0.43-2.77-1.29c-1.68-0.85-3.99-2.06-6.52-3.43
					c-2.53-1.37-4.81-2.63-6.45-3.56c-1.64-0.94-2.63-1.55-2.6-1.61c0.03-0.06,1.09,0.43,2.77,1.29c1.68,0.85,3.99,2.06,6.52,3.43
					c2.53,1.37,4.81,2.63,6.45,3.56C152.51,185.2,153.51,185.81,153.47,185.87z"/>
			</g>
		</g>
	</g>
	<g>
		<path class="st11" d="M58.35,431.12l-4.53,20.49l-8.26,15.17c-0.6,1.09-0.14,2.46,0.99,2.98l0,0c0.63,0.29,1.36,0.26,1.97-0.09
			c3.84-2.22,17.93-10.46,18.18-11.97c0.29-1.76,6.22-21.3,6.22-21.3L58.35,431.12z"/>
	</g>
	<g class="st14">
		<path class="st2" d="M46.55,469.76l20.49-13.44l-0.21,0.86c-0.18,0.75-0.62,1.41-1.25,1.86c-1.67,1.2-6.34,4.43-17,10.65
			C47.96,470.05,47.2,470.08,46.55,469.76L46.55,469.76z"/>
	</g>
	<g class="st14">
		<g>
			<path class="st2" d="M64.47,448.72c-0.6,0.23-0.95,0.96-0.75,1.57c0.2,0.61,0.94,0.97,1.54,0.76c0.6-0.22,1.06-1.08,0.79-1.66
				c-0.27-0.58-1.16-0.97-1.69-0.61"/>
		</g>
	</g>
	<g>
		<g>
			<path class="st6" d="M53.39,462c-0.13,0.03-0.33-1.15-1.4-2.02c-1.05-0.9-2.24-0.89-2.24-1.02c-0.01-0.05,0.29-0.15,0.78-0.1
				c0.49,0.05,1.16,0.28,1.75,0.77c0.58,0.49,0.93,1.11,1.06,1.59C53.49,461.68,53.45,461.99,53.39,462z"/>
		</g>
	</g>
	<g>
		<g>
			<path class="st6" d="M51.27,464.37c-0.12,0.06-0.61-0.76-1.59-1.32c-0.97-0.58-1.93-0.61-1.93-0.74
				c-0.03-0.12,1.05-0.31,2.16,0.35C51.03,463.3,51.39,464.34,51.27,464.37z"/>
		</g>
	</g>
	<g>
		<g>
			<path class="st6" d="M56.96,459.16c-0.12,0.07-0.87-1.2-2.32-2.2c-1.43-1.03-2.88-1.31-2.85-1.45c-0.01-0.12,1.58-0.03,3.12,1.07
				C56.45,457.67,57.07,459.13,56.96,459.16z"/>
		</g>
	</g>
	<g>
		<g>
			<path class="st6" d="M58.85,453.05c-0.08,0.11-1.09-0.64-2.55-1.05c-1.45-0.43-2.7-0.35-2.71-0.48
				c-0.03-0.11,1.29-0.42,2.84,0.04C57.99,452,58.94,452.97,58.85,453.05z"/>
		</g>
	</g>
	<g>
		<g>
			<path class="st6" d="M60.34,447.07c-0.09,0.1-1.06-0.85-2.62-1.16c-1.56-0.34-2.83,0.15-2.87,0.02c-0.02-0.05,0.26-0.25,0.8-0.41
				c0.53-0.16,1.32-0.23,2.16-0.06c0.84,0.18,1.53,0.56,1.96,0.92C60.2,446.73,60.38,447.03,60.34,447.07z"/>
		</g>
	</g>
	<g>
		<g>
			<path class="st6" d="M58.03,444.77c-0.03-0.01,0-0.29,0.16-0.78c0.17-0.48,0.49-1.17,1.11-1.87c0.31-0.32,0.66-0.76,1.3-0.88
				c0.32-0.07,0.72,0.09,0.9,0.42c0.18,0.32,0.17,0.67,0.1,1c-0.34,1.29-1.76,2.27-3.26,2.1c-1.5-0.2-2.62-1.36-2.92-2.62
				c-0.06-0.32-0.06-0.7,0.19-1c0.24-0.31,0.69-0.35,0.97-0.22c0.58,0.24,0.88,0.68,1.17,1.03c0.56,0.74,0.85,1.44,1,1.92
				c0.15,0.49,0.17,0.78,0.14,0.78c-0.08,0.04-0.27-1.13-1.4-2.5c-0.29-0.32-0.62-0.72-1.04-0.87c-0.21-0.07-0.41-0.03-0.53,0.12
				c-0.12,0.15-0.14,0.41-0.08,0.67c0.26,1.03,1.29,2.09,2.56,2.24c1.26,0.16,2.51-0.71,2.79-1.74c0.06-0.25,0.06-0.52-0.04-0.7
				c-0.1-0.18-0.29-0.27-0.49-0.24c-0.44,0.06-0.81,0.43-1.11,0.73C58.31,443.64,58.11,444.82,58.03,444.77z"/>
		</g>
	</g>
	<g class="st15">
		<polygon points="57.82,433.34 57.21,436.26 71.68,440.5 72.92,436.4 58.35,431.12 		"/>
	</g>
	<g>
		<path class="st11" d="M124.65,438.7l-1.22,16.37c0,0,16.23,6.74,16.3,9.79l-31.83-1.23l0.86-25.59L124.65,438.7z"/>
	</g>
	<g class="st14">
		<g>
			<path class="st2" d="M113.63,453.31c-0.62,0.14-1.08,0.82-0.96,1.45c0.12,0.63,0.8,1.09,1.43,0.96c0.62-0.13,1.19-0.93,1-1.54
				c-0.19-0.61-1.02-1.11-1.6-0.83"/>
		</g>
	</g>
	<g class="st14">
		<path class="st2" d="M107.89,463.63l0.19-2.58l30.45,2.15c0,0,1.39,0.67,1.19,1.66L107.89,463.63z"/>
	</g>
	<g>
		<g>
			<path class="st6" d="M123.94,454.93c-0.01,0.16-0.79,0.2-1.58,0.67c-0.8,0.45-1.22,1.11-1.36,1.04
				c-0.14-0.04,0.13-0.96,1.09-1.51C123.05,454.57,123.98,454.79,123.94,454.93z"/>
		</g>
	</g>
	<g>
		<g>
			<path class="st6" d="M127.23,456.44c0.03,0.15-0.65,0.39-1.21,1.03c-0.57,0.62-0.73,1.33-0.89,1.31
				c-0.15,0.02-0.22-0.9,0.48-1.67C126.31,456.32,127.23,456.29,127.23,456.44z"/>
		</g>
	</g>
	<g>
		<g>
			<path class="st6" d="M128.97,460.51c-0.14,0.03-0.33-0.76,0.1-1.59c0.43-0.84,1.17-1.15,1.23-1.01c0.08,0.13-0.41,0.57-0.75,1.26
				C129.2,459.85,129.13,460.5,128.97,460.51z"/>
		</g>
	</g>
	<g>
		<g>
			<path class="st6" d="M123.81,451.17c-0.07,0.14-0.78-0.1-1.66-0.08c-0.88,0.01-1.58,0.28-1.65,0.14
				c-0.09-0.12,0.6-0.67,1.64-0.68C123.18,450.52,123.89,451.05,123.81,451.17z"/>
		</g>
	</g>
	<g class="st15">
		<polygon points="124.4,441.94 124.19,444.86 108.55,444.11 108.65,440.74 		"/>
	</g>
	<g>
		<g>
			<path class="st6" d="M124,447.86c0,0.06-0.62,0.14-1.59-0.07c-0.49-0.1-1.05-0.29-1.65-0.58c-0.3-0.15-0.6-0.32-0.9-0.52
				c-0.14-0.1-0.31-0.2-0.47-0.39c-0.17-0.17-0.25-0.58-0.04-0.83c0.17-0.24,0.46-0.33,0.69-0.33c0.23,0,0.42,0.06,0.59,0.11
				c0.35,0.1,0.68,0.23,0.98,0.38c0.6,0.3,1.08,0.67,1.43,1.02c0.71,0.71,0.94,1.3,0.89,1.33c-0.07,0.05-0.41-0.45-1.14-1.05
				c-0.36-0.3-0.83-0.6-1.39-0.86c-0.28-0.12-0.58-0.23-0.9-0.32c-0.33-0.1-0.62-0.12-0.71,0.03c-0.03,0.06-0.04,0.08,0.03,0.18
				c0.07,0.09,0.2,0.19,0.34,0.29c0.27,0.19,0.55,0.37,0.82,0.51c0.54,0.3,1.07,0.51,1.52,0.65C123.4,447.71,124,447.77,124,447.86z
				"/>
		</g>
	</g>
	<g>
		<g>
			<path class="st6" d="M123.78,448.07c-0.06,0.02-0.34-0.55-0.36-1.56c-0.01-0.5,0.07-1.1,0.29-1.74c0.11-0.32,0.26-0.64,0.44-0.95
				c0.2-0.31,0.44-0.72,1.05-0.77c0.32,0,0.57,0.26,0.65,0.47c0.1,0.22,0.11,0.4,0.14,0.59c0.04,0.37,0.02,0.74-0.04,1.07
				c-0.13,0.67-0.43,1.23-0.74,1.62c-0.65,0.8-1.31,0.96-1.32,0.91c-0.05-0.08,0.5-0.36,1.01-1.13c0.25-0.38,0.48-0.89,0.56-1.48
				c0.04-0.29,0.05-0.61,0.01-0.92c-0.04-0.34-0.15-0.62-0.28-0.59c-0.16-0.01-0.44,0.24-0.58,0.5c-0.17,0.28-0.32,0.57-0.43,0.85
				c-0.22,0.57-0.33,1.11-0.37,1.58C123.73,447.46,123.87,448.05,123.78,448.07z"/>
		</g>
	</g>
	<g>
		<g>
			<g>
				<path class="st7" d="M84.32,228.99l8.24,0.46c0.52,2.67,2.33,6.75,2.33,6.75c6.63-11.51,11.77-26.93,13.05-33.12
					c-0.19-0.62-0.41-1.3-0.68-2.07c-0.32-0.88-0.05-2.56,0.1-3.48c0.22-1.38,0.61-3.24,0.72-4.1c0.35-2.62,0.77-3.03,1.69-2.73
					c1.24,0.4-0.51,7.35,0.51,7.5c0.55,0.08,1.22-2.3,1.41-4.25c0.19-1.95,1.08-7.96,1.72-8.36c0.95-0.59,1.77,0.34,1.53,2.29
					c-0.24,1.97-0.55,7.84,0.49,7.92c1.02,0.08,1.87-9.89,1.87-9.89s-0.16-2.17,1.03-2.12c2.16,0.09,0.47,10.6,0.29,11.59
					c-0.13,0.69,0.99,0.82,1.09,0.07c0.1-0.77,0.62-9.97,2.82-9.89c1.69,0.06-1.31,8.66-0.36,10.65c0.95,1.99,1.6-6.77,3.21-6.65
					c0.6,0.05,1.04,0.16-0.06,5.12c-0.59,2.67-2.33,7.57-3.85,11.62c-2.55,13.75-13.74,57.75-31.28,49.69
					c-9.82-4.51-14.4-26.82-14.4-26.82L84.32,228.99z"/>
			</g>
		</g>
		<g>
			<g>
				<g>
					<path class="st8" d="M121.47,206.31c-0.01,0,0.02-0.11,0.08-0.3c0.08-0.22,0.17-0.51,0.29-0.87c0.27-0.79,0.66-1.9,1.15-3.32
						c0.49-1.44,1.09-3.21,1.69-5.29c0.31-1.04,0.55-2.16,0.78-3.37c0.11-0.6,0.23-1.22,0.3-1.86c0.03-0.32,0.06-0.64,0.04-0.95
						c-0.02-0.33-0.07-0.59-0.33-0.6c-0.27-0.07-0.45,0.15-0.63,0.43c-0.17,0.28-0.3,0.6-0.42,0.93c-0.23,0.66-0.42,1.36-0.6,2.08
						c-0.18,0.72-0.35,1.46-0.57,2.21c-0.13,0.38-0.19,0.75-0.5,1.16c-0.06,0.05-0.11,0.12-0.23,0.14
						c-0.13,0.03-0.22-0.02-0.32-0.07c-0.12-0.11-0.18-0.22-0.23-0.32c-0.09-0.21-0.15-0.43-0.18-0.64c-0.15-1.68,0.23-3.31,0.5-5
						c0.14-0.84,0.3-1.69,0.41-2.56c0.05-0.43,0.1-0.87,0.1-1.29c0.02-0.4-0.05-0.93-0.23-1.01c-0.21-0.08-0.6,0.16-0.81,0.52
						c-0.23,0.35-0.4,0.76-0.55,1.19c-0.29,0.85-0.48,1.76-0.65,2.68c-0.16,0.92-0.28,1.86-0.39,2.82
						c-0.05,0.48-0.09,0.96-0.14,1.44l-0.06,0.73c-0.02,0.2-0.02,0.61-0.33,0.85c-0.29,0.22-0.68,0.24-0.99,0.04
						c-0.16-0.1-0.28-0.29-0.3-0.48c-0.02-0.1,0-0.18,0-0.27l0.03-0.18c0.07-0.49,0.15-0.98,0.22-1.47
						c0.14-0.98,0.26-1.98,0.35-2.98c0.09-1,0.16-2.02,0.18-3.03c0-1.01-0.01-2.06-0.3-2.98c-0.09-0.28-0.25-0.53-0.42-0.61
						c-0.18-0.06-0.43,0-0.57,0.18c-0.29,0.41-0.34,1.08-0.32,1.63l0,0.03l0,0.01c-0.18,1.97-0.39,3.91-0.68,5.81
						c-0.15,0.95-0.3,1.89-0.54,2.83c-0.06,0.23-0.13,0.47-0.21,0.7c-0.11,0.23-0.14,0.47-0.47,0.72c-0.29,0.14-0.5-0.02-0.62-0.14
						c-0.12-0.13-0.17-0.25-0.23-0.38c-0.1-0.25-0.15-0.49-0.19-0.72c-0.27-1.89-0.16-3.71-0.05-5.49c0.04-0.9,0.25-1.78,0.14-2.57
						c-0.06-0.39-0.21-0.78-0.47-0.96c-0.13-0.08-0.27-0.1-0.43-0.07c-0.08,0.02-0.16,0.05-0.23,0.1c-0.08,0.06-0.06,0.04-0.12,0.15
						c-0.33,0.68-0.49,1.55-0.66,2.34c-0.17,0.8-0.31,1.6-0.43,2.39c-0.13,0.79-0.24,1.57-0.34,2.33c-0.1,0.76-0.16,1.53-0.31,2.28
						c-0.14,0.75-0.32,1.47-0.59,2.17c-0.07,0.17-0.15,0.35-0.24,0.52c-0.12,0.16-0.18,0.36-0.51,0.46
						c-0.18,0.05-0.34-0.07-0.42-0.18c-0.07-0.11-0.1-0.21-0.13-0.31c-0.04-0.19-0.06-0.38-0.07-0.56
						c-0.02-1.43,0.19-2.74,0.26-4.01c0.04-0.63,0.07-1.25,0-1.82c-0.04-0.27-0.12-0.59-0.28-0.65c-0.22-0.09-0.51-0.14-0.68-0.01
						c-0.37,0.27-0.5,0.88-0.62,1.37c-0.12,0.52-0.17,1.03-0.27,1.53c-0.35,1.98-0.72,3.69-0.9,5.08c-0.08,0.7-0.12,1.32-0.03,1.85
						c0.12,0.51,0.29,0.96,0.38,1.31c0.1,0.33,0.18,0.6,0.24,0.81c0.05,0.18,0.07,0.28,0.07,0.28c-0.01,0-0.05-0.09-0.11-0.27
						c-0.07-0.2-0.17-0.47-0.29-0.79c-0.12-0.36-0.29-0.77-0.44-1.31c-0.11-0.55-0.09-1.19-0.02-1.9c0.15-1.42,0.49-3.11,0.81-5.1
						c0.09-0.49,0.14-1.02,0.25-1.55c0.06-0.27,0.12-0.54,0.22-0.81c0.11-0.26,0.22-0.57,0.53-0.77c0.32-0.2,0.69-0.13,0.99-0.01
						c0.39,0.22,0.41,0.6,0.48,0.9c0.09,0.63,0.06,1.25,0.03,1.89c-0.06,1.27-0.26,2.61-0.23,3.96c0.01,0.17,0.03,0.33,0.06,0.48
						c0.04,0.16,0.12,0.23,0.1,0.19c0.03,0.01,0.16-0.14,0.23-0.27c0.08-0.14,0.15-0.3,0.21-0.46c0.25-0.65,0.42-1.37,0.55-2.1
						c0.14-0.72,0.19-1.48,0.29-2.26c0.1-0.77,0.21-1.56,0.33-2.35c0.12-0.79,0.26-1.6,0.43-2.41c0.19-0.82,0.3-1.62,0.7-2.48
						c0.02-0.09,0.2-0.28,0.29-0.32c0.11-0.06,0.23-0.11,0.35-0.15c0.26-0.07,0.57-0.03,0.8,0.13c0.46,0.32,0.61,0.83,0.68,1.28
						c0.07,0.46,0.05,0.93-0.01,1.37c-0.05,0.43-0.09,0.87-0.12,1.31c-0.1,1.75-0.2,3.59,0.06,5.37c0.04,0.22,0.09,0.44,0.16,0.62
						c0.04,0.09,0.08,0.18,0.13,0.22c0.02,0.03,0.03,0.03,0.04,0.03l0,0l0,0c-0.01,0.2,0,0.04-0.01,0.08c0-0.04-0.01-0.03-0.03-0.07
						c0.04-0.03,0.18-0.27,0.24-0.46c0.07-0.21,0.14-0.43,0.2-0.65c0.23-0.89,0.38-1.83,0.53-2.77c0.28-1.89,0.49-3.82,0.67-5.78
						l0,0.04c-0.01-0.64-0.02-1.32,0.42-1.99c0.26-0.33,0.73-0.51,1.17-0.34c0.44,0.2,0.6,0.59,0.72,0.92
						c0.33,1.07,0.32,2.12,0.32,3.16c-0.02,1.04-0.09,2.06-0.18,3.08c-0.1,1.01-0.22,2.02-0.36,3.01c-0.08,0.5-0.15,0.99-0.23,1.48
						c-0.06,0.31-0.05,0.32,0.05,0.41c0.1,0.08,0.3,0.06,0.39-0.02c0.11-0.07,0.12-0.22,0.14-0.49l0.06-0.73
						c0.05-0.49,0.1-0.97,0.14-1.45c0.11-0.96,0.23-1.91,0.4-2.85c0.17-0.94,0.36-1.86,0.67-2.76c0.16-0.45,0.34-0.89,0.61-1.3
						c0.14-0.2,0.3-0.41,0.54-0.56c0.24-0.14,0.51-0.27,0.87-0.13c0.34,0.19,0.4,0.51,0.46,0.74c0.04,0.24,0.05,0.48,0.04,0.71
						c-0.01,0.46-0.06,0.91-0.11,1.35c-0.12,0.88-0.27,1.73-0.42,2.58c-0.27,1.67-0.65,3.33-0.52,4.86
						c0.02,0.19,0.07,0.36,0.13,0.51c0.04,0.08,0.08,0.14,0.11,0.17c0-0.01-0.01-0.02-0.02,0.04c-0.01,0.07,0-0.01-0.01,0
						c-0.03-0.05-0.01-0.04,0.01-0.06c0.18-0.22,0.3-0.64,0.41-0.98c0.22-0.73,0.39-1.47,0.58-2.19c0.19-0.72,0.38-1.43,0.63-2.11
						c0.13-0.34,0.26-0.68,0.46-1c0.11-0.16,0.21-0.32,0.38-0.44c0.08-0.07,0.19-0.12,0.3-0.15c0.13-0.02,0.24-0.02,0.32,0
						c0.2,0.01,0.46,0.18,0.53,0.39c0.08,0.2,0.1,0.38,0.11,0.56c0.02,0.35-0.02,0.68-0.06,1.01c-0.08,0.65-0.2,1.28-0.32,1.88
						c-0.24,1.21-0.51,2.34-0.83,3.38c-0.63,2.08-1.26,3.84-1.77,5.28c-0.52,1.43-0.95,2.54-1.24,3.29
						c-0.14,0.35-0.25,0.63-0.34,0.85C121.53,206.22,121.48,206.32,121.47,206.31z"/>
				</g>
			</g>
		</g>
	</g>
	<g>
		<path class="st11" d="M75.7,229.95c1.59,5.62,4.71,14.31,8.05,23.47c0.48,1.32,2.32,1.41,2.93,0.14l8.2-17.35
			c0,0-1.98-14.25-1.81-13.75c0.17,0.5-16.93,1.84-16.93,1.84L75.7,229.95z"/>
	</g>
	<g>
		<g>
			<path class="st6" d="M97.88,231.33c-0.04,0.04-0.21-0.16-0.63-0.28c-0.39-0.12-1.11-0.11-1.58,0.42l-0.22,0.25l-0.12-0.31
				c-0.44-1.12-0.99-2.57-1.56-4.17c-1.32-3.68-2.29-6.71-2.15-6.75c0.14-0.05,1.32,2.9,2.64,6.58c0.57,1.59,1.08,3.07,1.45,4.21
				l-0.34-0.07c0.33-0.34,0.74-0.48,1.09-0.51c0.35-0.03,0.65,0.04,0.88,0.14C97.78,231.04,97.9,231.31,97.88,231.33z"/>
		</g>
	</g>
	<g>
		<g>
			<path class="st6" d="M86.25,247.83c-0.06-0.04,0.4-0.97,1.19-2.46c0.79-1.49,1.92-3.52,3.19-5.75c1.27-2.23,2.45-4.24,3.32-5.68
				c0.87-1.44,1.45-2.31,1.51-2.28c0.06,0.04-0.4,0.97-1.19,2.46c-0.79,1.49-1.92,3.52-3.19,5.75c-1.27,2.23-2.45,4.24-3.32,5.68
				C86.88,246.99,86.31,247.87,86.25,247.83z"/>
		</g>
	</g>
	<g>
		<g>
			<path class="st12" d="M80.79,245.22c-0.02-0.04,0.5-0.4,1.43-1c0.93-0.6,2.28-1.44,3.92-2.44l-0.09,0.27
				c-0.91-2.13-1.97-4.62-3.11-7.29c-1.42-3.38-2.69-6.47-3.62-8.78l0.27,0.09c-1.3,0.7-2.35,1.27-3.09,1.64
				c-0.74,0.38-1.15,0.57-1.17,0.54c-0.02-0.03,0.36-0.29,1.07-0.73c0.7-0.44,1.73-1.05,3.01-1.79l0.19-0.11l0.09,0.2
				c1,2.28,2.32,5.35,3.74,8.73c1.11,2.69,2.15,5.19,3.03,7.33l0.07,0.18l-0.16,0.09c-1.66,0.96-3.04,1.74-4.01,2.28
				C81.37,244.98,80.81,245.26,80.79,245.22z"/>
		</g>
	</g>
	<g>
		<g>
			<g>
				<path class="st6" d="M125.28,442.82c3.04-0.09,5.5-2.48,5.69-5.51c1.71-27.68,9.41-153.59,7.87-157.54
					c-1.74-4.44-6.3-19.88-6.3-19.88l-40.83-1.92c0,0-10.17,16.06-11.63,22.21c-1.31,5.51-38.3,122.06-42.9,146.85
					c-0.47,2.55,1.05,5.03,3.53,5.78L125.28,442.82z"/>
			</g>
		</g>
		<g>
			<g>
				<path class="st10" d="M99.76,258.87c0,0-0.05,0.15-0.18,0.44c-0.14,0.3-0.33,0.72-0.58,1.26c-0.53,1.12-1.29,2.75-2.27,4.82
					c-0.45,1.07-0.95,2.26-1.49,3.55c-0.55,1.3-1.15,2.7-1.69,4.26c-0.56,1.55-1.2,3.18-1.81,4.95c-0.58,1.77-1.19,3.65-1.83,5.61
					c-0.58,1.99-1.18,4.07-1.81,6.24c-0.59,2.18-1.15,4.46-1.77,6.82c-0.55,2.37-1.12,4.82-1.7,7.35c-0.53,2.54-1.12,5.14-1.65,7.83
					c-1.1,5.36-2.17,11.01-3.32,16.86c-1.16,5.85-2.35,11.9-3.79,18.06c-0.68,3.09-1.48,6.11-2.22,9.1
					c-0.82,2.97-1.61,5.9-2.48,8.76c-1.74,5.71-3.64,11.15-5.58,16.27c-3.91,10.24-7.96,19.25-11.5,26.74
					c-3.55,7.49-6.57,13.48-8.67,17.6c-1.05,2.04-1.87,3.64-2.44,4.74c-0.28,0.52-0.49,0.93-0.65,1.23
					c-0.15,0.27-0.24,0.41-0.24,0.41s0.06-0.15,0.19-0.43c0.15-0.3,0.35-0.72,0.6-1.25c0.55-1.12,1.34-2.72,2.36-4.79
					c2.04-4.16,5.02-10.17,8.52-17.67c3.49-7.51,7.5-16.52,11.39-26.76c1.93-5.12,3.81-10.55,5.54-16.25
					c0.87-2.85,1.65-5.77,2.47-8.74c0.74-2.99,1.54-6,2.21-9.09c1.43-6.15,2.63-12.2,3.8-18.04c1.15-5.85,2.24-11.49,3.35-16.86
					c0.53-2.69,1.13-5.29,1.67-7.83c0.59-2.53,1.17-4.98,1.73-7.35c0.62-2.36,1.2-4.64,1.8-6.82c0.64-2.17,1.26-4.25,1.84-6.24
					c0.65-1.97,1.28-3.84,1.86-5.61c0.62-1.76,1.27-3.4,1.85-4.94c0.56-1.55,1.17-2.95,1.74-4.25c0.56-1.29,1.07-2.47,1.53-3.54
					c1-2.09,1.82-3.69,2.36-4.79c0.27-0.53,0.48-0.94,0.63-1.24C99.68,259.01,99.76,258.87,99.76,258.87z"/>
			</g>
		</g>
		<g>
			<g>
				<path class="st10" d="M63.71,435.24c0,0,0.03-0.16,0.1-0.46c0.09-0.32,0.2-0.76,0.36-1.33c0.33-1.19,0.81-2.9,1.42-5.1
					c1.24-4.45,3.01-10.85,5.21-18.75c2.18-7.92,4.72-17.37,7.48-27.88c1.36-5.26,2.78-10.78,4.25-16.51
					c1.43-5.74,2.92-11.67,4.44-17.75c1.47-6.1,2.9-12.05,4.28-17.8c1.34-5.76,2.64-11.31,3.87-16.6
					c2.42-10.59,4.54-20.15,6.27-28.18c1.71-8.02,3.1-14.52,4.06-19.03c0.48-2.23,0.85-3.97,1.1-5.18c0.13-0.57,0.23-1.02,0.3-1.34
					c0.07-0.3,0.12-0.45,0.12-0.45s-0.01,0.16-0.07,0.46c-0.06,0.33-0.14,0.78-0.25,1.35c-0.24,1.21-0.57,2.96-1.01,5.2
					c-0.45,2.26-1.01,5.02-1.65,8.21c-0.66,3.2-1.42,6.84-2.25,10.86c-1.69,8.04-3.77,17.61-6.16,28.21
					c-1.21,5.3-2.47,10.86-3.84,16.61c-1.38,5.75-2.81,11.71-4.27,17.8c-1.52,6.08-3.01,12.02-4.45,17.76
					c-1.45,5.73-2.91,11.25-4.28,16.5c-2.78,10.5-5.36,19.94-7.59,27.86c-1.12,3.95-2.14,7.53-3.03,10.67
					c-0.91,3.13-1.69,5.83-2.34,8.04c-0.65,2.18-1.16,3.89-1.51,5.07c-0.17,0.56-0.31,1-0.41,1.32
					C63.77,435.1,63.71,435.24,63.71,435.24z"/>
			</g>
		</g>
		<g>
			<g>
				<path class="st10" d="M112.37,258.95c0,0,0.03,0.16,0.08,0.47c0.04,0.33,0.1,0.79,0.17,1.37c0.07,0.61,0.16,1.36,0.26,2.24
					c0.1,0.88,0.12,1.91,0.2,3.07c0.03,0.58,0.06,1.19,0.1,1.83c0,0.64,0,1.32,0.01,2.02c0,0.7,0,1.44,0,2.2
					c-0.01,0.76-0.07,1.56-0.1,2.38c-0.04,0.82-0.08,1.67-0.13,2.55c-0.08,0.87-0.16,1.78-0.25,2.7c-0.14,1.86-0.45,3.81-0.7,5.86
					c-0.62,4.09-1.44,8.55-2.49,13.29c-1.05,4.75-2.29,9.79-3.57,15.1c-1.28,5.31-2.6,10.89-3.71,16.72
					c-1.08,5.84-2.03,11.91-2.82,18.16c-0.8,6.25-1.47,12.37-2.12,18.28c-0.64,5.91-1.3,11.61-1.98,17.03
					c-0.37,2.71-0.73,5.35-1.08,7.91c-0.42,2.56-0.79,5.04-1.2,7.44c-0.46,2.39-0.85,4.7-1.32,6.91c-0.49,2.2-0.94,4.32-1.42,6.33
					c-0.53,2-1.03,3.9-1.5,5.71c-0.51,1.79-1.06,3.46-1.54,5.03c-0.25,0.78-0.47,1.54-0.72,2.26c-0.27,0.72-0.52,1.4-0.77,2.06
					c-0.49,1.32-0.94,2.52-1.34,3.61c-0.89,2.13-1.65,3.76-2.14,4.88c-0.24,0.54-0.44,0.96-0.57,1.26
					c-0.13,0.28-0.21,0.42-0.21,0.42s0.05-0.15,0.16-0.44c0.13-0.31,0.3-0.73,0.53-1.28c0.46-1.13,1.19-2.76,2.05-4.91
					c0.39-1.09,0.82-2.3,1.3-3.62c0.24-0.66,0.49-1.35,0.74-2.07c0.25-0.72,0.46-1.48,0.7-2.27c0.46-1.57,1.01-3.24,1.5-5.03
					c0.46-1.8,0.95-3.71,1.46-5.7c0.44-2.02,0.9-4.13,1.38-6.33c0.45-2.21,0.84-4.52,1.28-6.9c0.41-2.39,0.77-4.88,1.18-7.43
					c0.34-2.56,0.7-5.2,1.06-7.91c0.67-5.42,1.31-11.12,1.95-17.03c0.64-5.91,1.31-12.03,2.11-18.29
					c0.79-6.26,1.74-12.35,2.83-18.19c1.12-5.85,2.45-11.43,3.74-16.74c1.3-5.31,2.54-10.34,3.61-15.08
					c1.06-4.74,1.9-9.18,2.55-13.26c0.26-2.05,0.59-3.99,0.74-5.84c0.09-0.92,0.18-1.82,0.27-2.69c0.05-0.87,0.1-1.72,0.15-2.54
					c0.04-0.82,0.11-1.61,0.12-2.37c0.01-0.76,0.01-1.49,0.02-2.2c0.01-0.7,0.01-1.37,0.02-2.01c-0.03-0.64-0.05-1.25-0.08-1.82
					c-0.06-1.15-0.06-2.18-0.15-3.06c-0.08-0.88-0.15-1.63-0.21-2.24c-0.05-0.59-0.09-1.05-0.12-1.38
					C112.36,259.11,112.37,258.95,112.37,258.95z"/>
			</g>
		</g>
		<g>
			<g>
				<path class="st10" d="M107.91,441.63c0,0-0.04-0.15-0.11-0.46c-0.06-0.33-0.15-0.78-0.26-1.36c-0.11-0.61-0.25-1.35-0.4-2.22
					c-0.15-0.88-0.37-1.89-0.47-3.04c-0.13-1.15-0.28-2.43-0.44-3.83c-0.19-1.4-0.2-2.94-0.32-4.58c-0.04-0.82-0.11-1.67-0.14-2.55
					c-0.01-0.88-0.01-1.79-0.02-2.72c-0.01-0.93-0.01-1.9-0.02-2.88c0.04-0.99,0.07-2,0.11-3.03c0.04-1.04,0.08-2.1,0.13-3.18
					c0.09-1.08,0.17-2.19,0.26-3.32c0.15-2.26,0.43-4.6,0.71-7.02c0.25-2.43,0.68-4.91,1.03-7.48c0.44-2.56,0.84-5.2,1.36-7.89
					c1.97-10.78,4.71-22.52,7.2-34.9c2.48-12.39,4.21-24.31,5.25-35.21c1.08-10.89,1.49-20.75,1.63-29.03
					c0.05-4.14,0.03-7.88-0.02-11.17c-0.06-3.29-0.14-6.12-0.24-8.43c-0.07-2.31-0.19-4.11-0.24-5.33
					c-0.02-0.59-0.04-1.05-0.06-1.39c-0.01-0.31,0-0.47,0-0.47s0.03,0.16,0.05,0.47c0.03,0.33,0.06,0.79,0.11,1.38
					c0.08,1.22,0.23,3.01,0.33,5.33c0.13,2.31,0.24,5.15,0.33,8.44c0.08,3.29,0.12,7.04,0.09,11.18
					c-0.09,8.29-0.47,18.16-1.52,29.07c-1.02,10.91-2.74,22.86-5.22,35.27c-2.49,12.4-5.24,24.12-7.24,34.89
					c-0.52,2.69-0.93,5.32-1.38,7.88c-0.36,2.57-0.79,5.05-1.06,7.47c-0.29,2.42-0.58,4.75-0.74,7c-0.1,1.12-0.19,2.23-0.28,3.31
					c-0.05,1.08-0.1,2.14-0.14,3.17c-0.04,1.03-0.09,2.04-0.13,3.02c0,0.98,0,1.94,0,2.87c0,0.93,0,1.84,0,2.71
					c0.02,0.88,0.08,1.73,0.12,2.55c0.1,1.64,0.1,3.17,0.28,4.57c0.14,1.4,0.28,2.68,0.4,3.83c0.09,1.16,0.29,2.16,0.42,3.05
					c0.14,0.87,0.26,1.62,0.35,2.23c0.09,0.59,0.16,1.04,0.21,1.37C107.9,441.47,107.91,441.63,107.91,441.63z"/>
			</g>
		</g>
		<g>
			<g>
				<path class="st10" d="M130.32,259.79c0,0,0.06,0.15,0.15,0.45c0.09,0.32,0.22,0.76,0.38,1.33c0.17,0.59,0.37,1.31,0.61,2.16
					c0.26,0.85,0.48,1.85,0.7,2.98c0.22,1.13,0.53,2.38,0.75,3.77c0.2,1.39,0.41,2.9,0.64,4.53c0.13,1.64,0.27,3.38,0.42,5.24
					c0.03,1.86,0.15,3.83,0.11,5.89c-0.03,4.13-0.33,8.65-0.87,13.47c-0.57,4.82-1.35,9.95-2.32,15.32
					c-1,5.36-2.05,10.98-3.14,16.82c-1.09,5.83-2.06,11.89-2.93,18.12c-0.88,6.23-1.58,12.33-2.16,18.23
					c-0.6,5.9-1,11.61-1.35,17.04c-0.3,5.44-0.55,10.61-0.65,15.46c-0.13,4.84-0.16,9.36-0.14,13.48c0.02,4.12,0.08,7.85,0.19,11.12
					c0.07,3.27,0.22,6.09,0.3,8.39c0.11,2.28,0.2,4.07,0.26,5.3c0.02,0.59,0.04,1.05,0.06,1.38c0.01,0.31,0,0.47,0,0.47
					s-0.03-0.16-0.06-0.47c-0.03-0.33-0.06-0.79-0.11-1.38c-0.08-1.21-0.23-3-0.36-5.3c-0.12-2.3-0.29-5.12-0.39-8.39
					c-0.13-3.27-0.22-7-0.26-11.13c-0.04-4.12-0.04-8.64,0.08-13.49c0.08-4.85,0.31-10.03,0.6-15.48
					c0.33-5.44,0.72-11.16,1.32-17.07c0.57-5.91,1.27-12.02,2.15-18.25c0.87-6.23,1.84-12.31,2.94-18.14
					c1.1-5.83,2.16-11.45,3.17-16.81c0.98-5.36,1.77-10.47,2.36-15.28c0.55-4.81,0.87-9.31,0.93-13.43
					c0.06-2.06-0.05-4.02-0.07-5.87c-0.13-1.85-0.26-3.59-0.38-5.22c-0.21-1.62-0.41-3.13-0.59-4.52c-0.21-1.38-0.5-2.63-0.7-3.77
					c-0.21-1.13-0.41-2.14-0.66-2.99c-0.22-0.85-0.41-1.58-0.56-2.17c-0.14-0.57-0.25-1.02-0.33-1.34
					C130.34,259.95,130.32,259.79,130.32,259.79z"/>
			</g>
		</g>
	</g>
</g>
<g id="Icons">
	<g>
		<path class="st11" d="M436.43,212.95l-100.05,14.13c-3.71,0.52-7.15-2.06-7.67-5.77l-13.3-94.19c-0.52-3.71,2.06-7.15,5.77-7.67
			l100.05-14.13c3.71-0.52,7.15,2.06,7.67,5.77l13.3,94.19C442.73,208.99,440.14,212.43,436.43,212.95z"/>
	</g>
	<g>
		<g>
			<g>
				<g>
					<path class="st0" d="M400.11,179.71c0,0.02-0.26,0.07-0.76,0.16c-0.54,0.09-1.27,0.21-2.19,0.36c-1.96,0.3-4.71,0.72-8.12,1.25
						c-6.94,1.02-16.51,2.42-27.29,4.01l-0.22,0.03l-0.06-0.22c-0.41-1.41-0.84-2.91-1.28-4.43c-3.71-12.98-7.03-24.57-9.2-32.14
						l0.18,0.12c-3.08,0.41-5.54,0.74-7.28,0.97c-0.81,0.1-1.46,0.18-1.94,0.24c-0.44,0.05-0.67,0.07-0.67,0.05
						c0-0.02,0.22-0.06,0.66-0.14c0.48-0.08,1.12-0.19,1.93-0.32c1.74-0.27,4.19-0.65,7.26-1.12l0.14-0.02l0.04,0.14
						c2.21,7.56,5.59,19.13,9.38,32.09c0.44,1.52,0.87,3.02,1.28,4.43l-0.29-0.18c10.78-1.52,20.37-2.86,27.31-3.84
						c3.42-0.46,6.18-0.83,8.14-1.09c0.92-0.11,1.66-0.2,2.2-0.27C399.84,179.72,400.1,179.69,400.11,179.71z"/>
				</g>
			</g>
			<g>
				<g>
					<path class="st0" d="M359.46,177.43c0-0.01,0.06-0.02,0.19-0.05c0.15-0.03,0.34-0.06,0.56-0.1c0.53-0.09,1.26-0.21,2.19-0.36
						c1.95-0.3,4.73-0.72,8.21-1.25c7.05-1.04,16.91-2.49,28.32-4.16l-0.21,0.24c0.15-4.89,0.32-10.18,0.49-15.65
						c0.09-2.81,0.18-5.58,0.27-8.22l0.29,0.26c-13.26,1.87-24.97,3.52-33.41,4.71c-4.17,0.57-7.54,1.02-9.9,1.34
						c-1.13,0.14-2.02,0.26-2.67,0.34c-0.28,0.03-0.51,0.06-0.69,0.08c-0.16,0.01-0.24,0.02-0.24,0.01c0-0.01,0.08-0.03,0.23-0.06
						c0.18-0.03,0.41-0.07,0.69-0.12c0.64-0.1,1.53-0.25,2.66-0.43c2.36-0.36,5.71-0.87,9.88-1.5c8.43-1.23,20.13-2.95,33.38-4.88
						l0.3-0.04l-0.01,0.31c-0.08,2.64-0.17,5.4-0.26,8.22c-0.18,5.47-0.35,10.76-0.51,15.65l-0.01,0.21l-0.21,0.03
						c-11.42,1.6-21.29,2.99-28.35,3.98c-3.48,0.47-6.27,0.84-8.23,1.11c-0.93,0.12-1.67,0.21-2.2,0.27
						c-0.23,0.02-0.42,0.04-0.57,0.06C359.53,177.44,359.46,177.44,359.46,177.43z"/>
				</g>
			</g>
			<g>
				<g>
					<path class="st0" d="M372.81,194.27c-0.05,0.01-0.1-0.33-0.35-0.88c-0.25-0.54-0.76-1.29-1.7-1.79
						c-0.91-0.5-2.29-0.65-3.51,0.02c-1.21,0.63-2.11,2.14-1.87,3.72c0.21,1.58,1.5,2.78,2.84,3.04c1.35,0.3,2.64-0.23,3.37-0.97
						c0.76-0.74,1.04-1.61,1.12-2.2C372.81,194.62,372.76,194.27,372.81,194.27c0.02-0.01,0.14,0.33,0.12,0.97
						c-0.03,0.62-0.26,1.58-1.06,2.43c-0.77,0.85-2.19,1.49-3.73,1.18c-1.52-0.27-3.02-1.63-3.26-3.44
						c-0.28-1.81,0.77-3.53,2.16-4.22c1.39-0.73,2.94-0.51,3.91,0.08c1.01,0.59,1.5,1.45,1.7,2.04
						C372.85,193.91,372.83,194.27,372.81,194.27z"/>
				</g>
			</g>
			<g>
				<g>
					<path class="st0" d="M397.52,190.72c-0.05,0.01-0.1-0.33-0.35-0.88c-0.25-0.54-0.76-1.29-1.7-1.79
						c-0.91-0.5-2.29-0.65-3.51,0.02c-1.21,0.63-2.11,2.14-1.87,3.72c0.21,1.58,1.5,2.78,2.84,3.04c1.35,0.3,2.64-0.23,3.37-0.97
						c0.76-0.74,1.04-1.61,1.12-2.2C397.52,191.07,397.47,190.72,397.52,190.72c0.02-0.01,0.14,0.33,0.12,0.96
						c-0.03,0.62-0.26,1.58-1.06,2.43c-0.77,0.85-2.19,1.49-3.73,1.18c-1.52-0.27-3.02-1.63-3.26-3.44
						c-0.28-1.81,0.77-3.53,2.16-4.22c1.39-0.73,2.94-0.51,3.91,0.08c1.01,0.59,1.5,1.45,1.7,2.04
						C397.56,190.36,397.54,190.72,397.52,190.72z"/>
				</g>
			</g>
			<g>
				
					<ellipse transform="matrix(0.5516 -0.8341 0.8341 0.5516 57.6658 395.8945)" class="st12" cx="397.08" cy="144.31" rx="11.07" ry="11.07"/>
			</g>
		</g>
		<g>
			<g>
				<path class="st11" d="M402.44,139.36c0.06,0.04-0.39,0.79-1.17,1.97c-0.77,1.18-1.87,2.79-3.12,4.55
					c-0.46,0.65-0.91,1.28-1.33,1.87l-0.14,0.2l-0.2-0.13c-2.67-1.76-4.55-3.09-4.49-3.19c0.06-0.1,2.06,1.07,4.76,2.77l-0.34,0.07
					c0.42-0.59,0.86-1.23,1.31-1.88c1.24-1.76,2.39-3.33,3.24-4.46C401.82,140,402.38,139.32,402.44,139.36z"/>
			</g>
		</g>
	</g>
	<g>
		<g>
			<path class="st10" d="M408.71,336.66l-76.88-19.38c-3.64-0.92-5.84-4.61-4.92-8.24l18.21-72.23c0.92-3.64,4.61-5.84,8.24-4.92
				l76.88,19.38c3.64,0.92,5.84,4.61,4.92,8.24l-18.21,72.23C416.04,335.37,412.35,337.58,408.71,336.66z"/>
		</g>
		<g>
			<path class="st12" d="M360.41,272.12l0.7,19.1l35.02,8.83l9.83-15.68c0,0-3.39-2.1-5.86-2.19l4.12-19.1
				c0.4-1.85-1.2-3.53-3.07-3.22l-3.77,0.62l-19.75-4.98l-1.99-1.71c-1.5-1.29-3.84-0.54-4.31,1.38l-4.59,18.77
				C366.75,273.95,363.93,272.29,360.41,272.12z"/>
		</g>
		<g>
			<path class="st1" d="M370.15,284.44c1.35,2.63,3.69,4.68,6.34,5.98c2.66,1.3,5.62,1.87,8.58,1.99c1.61,0.06,3.4-0.08,4.53-1.22
				c1.17-1.18,1.27-3.02,1.29-4.69c0.03-2.13,0.06-4.3-0.51-6.35c-0.57-2.06-1.82-4.02-3.73-4.96c-2.6-1.27-5.75-0.37-8.27,1.05
				c-3.3,1.86-6.1,4.61-8.02,7.89"/>
		</g>
		<g>
			
				<rect x="359" y="291.19" transform="matrix(0.9697 0.2445 -0.2445 0.9697 84.1559 -78.912)" class="st6" width="1.91" height="16.7"/>
		</g>
		<g>
			
				<rect x="366.49" y="292.95" transform="matrix(0.9697 0.2444 -0.2444 0.9697 83.7913 -80.7979)" class="st6" width="1.91" height="8.53"/>
		</g>
		<g>
			
				<rect x="385.06" y="297.63" transform="matrix(0.9697 0.2444 -0.2444 0.9697 85.4977 -85.1931)" class="st6" width="1.91" height="8.53"/>
		</g>
		<g>
			
				<rect x="392.24" y="299.57" transform="matrix(0.9697 0.2444 -0.2444 0.9697 87.1884 -86.7667)" class="st6" width="1.91" height="16.7"/>
		</g>
		<g>
			<g>
				<path class="st6" d="M371.08,282.78c-0.14-0.04,1.28-6.13,3.16-13.61c1.89-7.48,3.53-13.52,3.67-13.48
					c0.14,0.04-1.28,6.13-3.16,13.61C372.87,276.78,371.22,282.81,371.08,282.78z"/>
			</g>
		</g>
		<g>
			<g>
				<path class="st6" d="M390.87,287.77c-0.14-0.04,1.28-6.13,3.16-13.61c1.89-7.48,3.53-13.52,3.67-13.48
					c0.14,0.04-1.28,6.13-3.16,13.61C392.65,281.76,391.01,287.8,390.87,287.77z"/>
			</g>
		</g>
		<g>
			<g>
				<path class="st6" d="M400.1,282.18c0,0.03-0.34,0.04-0.98,0.04c-0.16,0-0.34,0-0.53,0c-0.2,0.02-0.4,0.05-0.63,0.07
					c-0.23,0.03-0.47,0.06-0.72,0.09c-0.25,0.07-0.52,0.13-0.8,0.21c-1.1,0.31-2.4,0.94-3.47,2.11c-1.08,1.14-1.9,2.83-2.21,4.71
					l-0.04,0.26l-0.25-0.06c-2.84-0.71-6.02-1.5-9.37-2.34c-3.8-0.97-7.39-1.88-10.49-2.68l-0.22-0.06l0.05-0.22
					c0.4-1.73,0.29-3.41-0.1-4.81c-0.36-1.41-1-2.55-1.6-3.41c-1.24-1.72-2.36-2.33-2.3-2.4c0.01-0.02,0.28,0.13,0.75,0.47
					c0.46,0.35,1.11,0.91,1.77,1.77c0.65,0.86,1.34,2.01,1.75,3.47c0.43,1.44,0.58,3.19,0.18,5.02l-0.17-0.28
					c3.1,0.77,6.69,1.67,10.5,2.62c3.35,0.85,6.52,1.66,9.36,2.38l-0.29,0.2c0.35-2.01,1.23-3.73,2.39-4.92
					c1.15-1.21,2.53-1.84,3.68-2.11c0.29-0.06,0.56-0.12,0.83-0.18c0.26-0.02,0.51-0.04,0.74-0.06c0.23-0.01,0.44-0.03,0.64-0.04
					c0.19,0.01,0.37,0.02,0.53,0.03C399.76,282.11,400.1,282.15,400.1,282.18z"/>
			</g>
		</g>
		<g>
			<g>
				<path class="st6" d="M370.28,284.39c-0.01,0.08-0.7,0.04-1.79,0.24c-1.08,0.19-2.55,0.7-3.84,1.74c-1.3,1.05-2.1,2.38-2.51,3.39
					c-0.42,1.02-0.53,1.71-0.61,1.7c-0.06,0-0.09-0.72,0.27-1.82c0.34-1.09,1.14-2.55,2.53-3.67c1.39-1.12,2.98-1.6,4.12-1.7
					C369.59,284.15,370.29,284.33,370.28,284.39z"/>
			</g>
		</g>
		<g>
			<g>
				<path class="st6" d="M395.69,300.33c-0.08-0.02,0.09-0.77,0.09-1.99c0-1.21-0.24-2.91-1.07-4.57c-0.83-1.65-2.05-2.86-3.03-3.58
					c-0.98-0.73-1.69-1.04-1.65-1.12c0.02-0.05,0.79,0.14,1.86,0.82c1.07,0.67,2.4,1.9,3.28,3.65c0.88,1.75,1.07,3.56,0.97,4.81
					C396.05,299.61,395.74,300.35,395.69,300.33z"/>
			</g>
		</g>
	</g>
</g>
<g id="Device">
	<g>
		<g>
			<path class="st6" d="M320.67,465.1l-125.83-0.58c-15.13-0.07-27.35-12.39-27.28-27.53l1.33-315.46
				c0.06-15.14,12.39-27.36,27.54-27.29l125.83,0.58c15.13,0.07,27.35,12.39,27.28,27.53l-1.33,315.46
				C348.14,452.95,335.81,465.17,320.67,465.1z"/>
		</g>
	</g>
	<g>
		<g>
			<path class="st12" d="M321.04,103.68l-24.4-0.11c-3.27-0.01-5.94,2.75-5.95,6.17l-0.02,4.43c-0.01,3.42-2.68,6.18-5.95,6.17
				l-47.55-0.22c-3.27-0.01-5.91-2.8-5.9-6.22l0.02-4.43c0.01-3.42-2.63-6.21-5.9-6.22l-8.58-0.04l-21.35-0.1
				c-10.6-0.05-19.24,8.51-19.28,19.12l-1.3,307.91c-0.05,10.6,8.51,19.23,19.11,19.28l125.58,0.58
				c10.6,0.05,19.24-8.51,19.28-19.11l1.3-307.91C340.19,112.35,331.64,103.73,321.04,103.68z"/>
		</g>
	</g>
	<path class="st6" d="M192.44,136.41c-0.13,0-0.26-0.05-0.36-0.15l-1.91-2c-0.09-0.1-0.14-0.22-0.14-0.36
		c0-0.13,0.06-0.26,0.15-0.35l1.91-1.83c0.2-0.19,0.52-0.18,0.71,0.02c0.19,0.2,0.18,0.52-0.02,0.71l-1.55,1.48l1.57,1.64
		c0.19,0.2,0.18,0.52-0.02,0.71C192.69,136.36,192.57,136.41,192.44,136.41z"/>
	<path class="st11" d="M311.02,431.75H207.21c-8.9,0-16.12-7.22-16.12-16.12v-2.88c0-8.9,7.22-16.12,16.12-16.12h103.82
		c8.9,0,16.12,7.22,16.12,16.12v2.88C327.15,424.53,319.93,431.75,311.02,431.75z"/>
	<path class="st12" d="M242.93,410.11h3.16c2.48,0,4.16,1.6,4.16,3.88c0,2.29-1.67,3.88-4.16,3.88h-3.16V410.11z M246.05,417.17
		c2.06,0,3.39-1.31,3.39-3.17c0-1.86-1.33-3.17-3.39-3.17h-2.3v6.35H246.05z"/>
	<path class="st12" d="M251.4,413.99c0-2.26,1.73-3.95,4.08-3.95c2.33,0,4.07,1.68,4.07,3.95c0,2.27-1.74,3.95-4.07,3.95
		C253.13,417.94,251.4,416.26,251.4,413.99z M258.74,413.99c0-1.85-1.39-3.22-3.25-3.22c-1.88,0-3.27,1.36-3.27,3.22
		c0,1.85,1.4,3.22,3.27,3.22C257.35,417.21,258.74,415.85,258.74,413.99z"/>
	<path class="st12" d="M267.88,410.11v7.77h-0.68l-4.99-6.3v6.3h-0.82v-7.77h0.68l5,6.3v-6.3H267.88z"/>
	<path class="st12" d="M275.9,417.17v0.71h-5.49v-7.77h5.32v0.71h-4.5v2.76h4.02v0.7h-4.02v2.88H275.9z"/>
	<path class="st6" d="M207.41,290.99c0,1.42-1.03,2.27-2.72,2.27h-1.79v2.1h-0.7v-6.65h2.49
		C206.39,288.71,207.41,289.56,207.41,290.99z M206.71,290.99c0-1.06-0.7-1.67-2.03-1.67h-1.77v3.33h1.77
		C206.01,292.64,206.71,292.03,206.71,290.99z"/>
	<path class="st6" d="M213.4,290.36v5h-0.65v-0.91c-0.35,0.61-1,0.96-1.8,0.96c-1.27,0-2.11-0.71-2.11-2.15v-2.9h0.67v2.83
		c0,1.06,0.55,1.61,1.5,1.61c1.05,0,1.7-0.67,1.7-1.82v-2.62H213.4z"/>
	<path class="st6" d="M217.81,290.32v0.66c-0.06,0-0.11-0.01-0.16-0.01c-1.05,0-1.68,0.66-1.68,1.84v2.55h-0.68v-5h0.65v0.98
		C216.25,290.67,216.89,290.32,217.81,290.32z"/>
	<path class="st6" d="M218.47,292.86c0-1.49,1.08-2.54,2.58-2.54c0.85,0,1.56,0.33,1.96,0.99l-0.5,0.34
		c-0.34-0.5-0.87-0.74-1.45-0.74c-1.09,0-1.89,0.78-1.89,1.95c0,1.18,0.8,1.95,1.89,1.95c0.58,0,1.11-0.23,1.45-0.73l0.5,0.34
		c-0.4,0.65-1.11,0.99-1.96,0.99C219.56,295.41,218.47,294.35,218.47,292.86z"/>
	<path class="st6" d="M228.86,292.46v2.9h-0.67v-2.83c0-1.05-0.55-1.6-1.5-1.6c-1.07,0-1.75,0.67-1.75,1.81v2.62h-0.68v-7.05h0.68
		v2.93c0.37-0.58,1.03-0.91,1.87-0.91C228.02,290.32,228.86,291.02,228.86,292.46z"/>
	<path class="st6" d="M234.47,292.26v3.1h-0.65v-0.78c-0.3,0.51-0.89,0.83-1.72,0.83c-1.13,0-1.83-0.59-1.83-1.45
		c0-0.77,0.49-1.42,1.93-1.42h1.59v-0.3c0-0.86-0.48-1.32-1.42-1.32c-0.65,0-1.25,0.23-1.66,0.59l-0.3-0.5
		c0.5-0.43,1.25-0.67,2.03-0.67C233.73,290.32,234.47,290.97,234.47,292.26z M233.79,293.86v-0.82h-1.57
		c-0.97,0-1.28,0.38-1.28,0.89c0,0.58,0.47,0.94,1.26,0.94C232.96,294.88,233.52,294.51,233.79,293.86z"/>
	<path class="st6" d="M235.61,294.79l0.3-0.53c0.4,0.31,1.07,0.56,1.78,0.56c0.95,0,1.34-0.32,1.34-0.82c0-1.3-3.24-0.28-3.24-2.25
		c0-0.82,0.7-1.43,1.98-1.43c0.65,0,1.35,0.18,1.77,0.47l-0.29,0.54c-0.44-0.3-0.96-0.43-1.47-0.43c-0.9,0-1.3,0.35-1.3,0.83
		c0,1.35,3.24,0.33,3.24,2.25c0,0.86-0.76,1.43-2.06,1.43C236.82,295.41,236.02,295.14,235.61,294.79z"/>
	<path class="st6" d="M245.3,293.07h-4.18c0.08,1.05,0.87,1.74,1.97,1.74c0.61,0,1.15-0.22,1.53-0.66l0.38,0.44
		c-0.45,0.53-1.14,0.82-1.93,0.82c-1.56,0-2.62-1.07-2.62-2.55c0-1.48,1.04-2.54,2.44-2.54c1.41,0,2.42,1.04,2.42,2.54
		C245.31,292.92,245.3,292.99,245.3,293.07z M241.12,292.56h3.55c-0.09-0.98-0.8-1.66-1.78-1.66
		C241.92,290.9,241.21,291.59,241.12,292.56z"/>
	<path class="st6" d="M256.52,290.36l-1.89,5h-0.64l-1.58-4.1l-1.58,4.1h-0.64l-1.88-5h0.65l1.57,4.25l1.61-4.25h0.58l1.6,4.25
		l1.59-4.25H256.52z"/>
	<path class="st6" d="M261.16,292.26v3.1h-0.65v-0.78c-0.3,0.51-0.89,0.83-1.72,0.83c-1.13,0-1.83-0.59-1.83-1.45
		c0-0.77,0.5-1.42,1.93-1.42h1.59v-0.3c0-0.86-0.48-1.32-1.42-1.32c-0.65,0-1.25,0.23-1.66,0.59l-0.3-0.5
		c0.5-0.43,1.25-0.67,2.03-0.67C260.43,290.32,261.16,290.97,261.16,292.26z M260.49,293.86v-0.82h-1.57
		c-0.97,0-1.28,0.38-1.28,0.89c0,0.58,0.47,0.94,1.26,0.94C259.66,294.88,260.22,294.51,260.49,293.86z"/>
	<path class="st6" d="M262.31,294.79l0.3-0.53c0.4,0.31,1.07,0.56,1.78,0.56c0.95,0,1.34-0.32,1.34-0.82c0-1.3-3.24-0.28-3.24-2.25
		c0-0.82,0.7-1.43,1.98-1.43c0.65,0,1.35,0.18,1.77,0.47l-0.29,0.54c-0.44-0.3-0.96-0.43-1.47-0.43c-0.9,0-1.3,0.35-1.3,0.83
		c0,1.35,3.24,0.33,3.24,2.25c0,0.86-0.76,1.43-2.06,1.43C263.51,295.41,262.72,295.14,262.31,294.79z"/>
	<path class="st6" d="M269.45,294.79l0.3-0.53c0.4,0.31,1.07,0.56,1.78,0.56c0.95,0,1.34-0.32,1.34-0.82c0-1.3-3.24-0.28-3.24-2.25
		c0-0.82,0.7-1.43,1.98-1.43c0.65,0,1.35,0.18,1.77,0.47l-0.29,0.54c-0.44-0.3-0.96-0.43-1.47-0.43c-0.9,0-1.3,0.35-1.3,0.83
		c0,1.35,3.24,0.33,3.24,2.25c0,0.86-0.76,1.43-2.06,1.43C270.65,295.41,269.86,295.14,269.45,294.79z"/>
	<path class="st6" d="M279.3,290.36v5h-0.65v-0.91c-0.35,0.61-1,0.96-1.8,0.96c-1.27,0-2.11-0.71-2.11-2.15v-2.9h0.67v2.83
		c0,1.06,0.55,1.61,1.5,1.61c1.05,0,1.7-0.67,1.7-1.82v-2.62H279.3z"/>
	<path class="st6" d="M280.69,292.86c0-1.49,1.08-2.54,2.58-2.54c0.85,0,1.56,0.33,1.96,0.99l-0.5,0.34
		c-0.34-0.5-0.87-0.74-1.45-0.74c-1.09,0-1.89,0.78-1.89,1.95c0,1.18,0.8,1.95,1.89,1.95c0.58,0,1.11-0.23,1.45-0.73l0.5,0.34
		c-0.4,0.65-1.11,0.99-1.96,0.99C281.77,295.41,280.69,294.35,280.69,292.86z"/>
	<path class="st6" d="M285.95,292.86c0-1.49,1.08-2.54,2.58-2.54c0.85,0,1.56,0.33,1.96,0.99l-0.5,0.34
		c-0.34-0.5-0.87-0.74-1.45-0.74c-1.09,0-1.89,0.78-1.89,1.95c0,1.18,0.8,1.95,1.89,1.95c0.58,0,1.11-0.23,1.45-0.73l0.5,0.34
		c-0.4,0.65-1.11,0.99-1.96,0.99C287.04,295.41,285.95,294.35,285.95,292.86z"/>
	<path class="st6" d="M296.08,293.07h-4.18c0.08,1.05,0.87,1.74,1.97,1.74c0.61,0,1.15-0.22,1.53-0.66l0.38,0.44
		c-0.45,0.53-1.14,0.82-1.93,0.82c-1.56,0-2.62-1.07-2.62-2.55c0-1.48,1.04-2.54,2.44-2.54c1.41,0,2.42,1.04,2.42,2.54
		C296.09,292.92,296.08,292.99,296.08,293.07z M291.9,292.56h3.55c-0.09-0.98-0.8-1.66-1.78-1.66
		C292.7,290.9,291.98,291.59,291.9,292.56z"/>
	<path class="st6" d="M296.77,294.79l0.3-0.53c0.4,0.31,1.07,0.56,1.78,0.56c0.95,0,1.34-0.32,1.34-0.82c0-1.3-3.24-0.28-3.24-2.25
		c0-0.82,0.7-1.43,1.98-1.43c0.65,0,1.35,0.18,1.77,0.47l-0.29,0.54c-0.44-0.3-0.96-0.43-1.47-0.43c-0.9,0-1.3,0.35-1.3,0.83
		c0,1.35,3.24,0.33,3.24,2.25c0,0.86-0.76,1.43-2.06,1.43C297.98,295.41,297.18,295.14,296.77,294.79z"/>
	<path class="st6" d="M301.42,294.79l0.3-0.53c0.4,0.31,1.07,0.56,1.78,0.56c0.95,0,1.34-0.32,1.34-0.82c0-1.3-3.24-0.28-3.24-2.25
		c0-0.82,0.7-1.43,1.98-1.43c0.65,0,1.35,0.18,1.77,0.47l-0.29,0.54c-0.44-0.3-0.96-0.43-1.47-0.43c-0.9,0-1.3,0.35-1.3,0.83
		c0,1.35,3.24,0.33,3.24,2.25c0,0.86-0.76,1.43-2.06,1.43C302.63,295.41,301.83,295.14,301.42,294.79z"/>
	<path class="st6" d="M307.54,289.77v0.59h1.54v0.57h-1.52v4.43h-0.67v-4.43h-0.89v-0.57h0.89v-0.62c0-0.89,0.53-1.48,1.51-1.48
		c0.37,0,0.75,0.11,1,0.31l-0.23,0.5c-0.19-0.16-0.46-0.25-0.74-0.25C307.84,288.83,307.54,289.15,307.54,289.77z"/>
	<path class="st6" d="M314.5,290.36v5h-0.65v-0.91c-0.35,0.61-1,0.96-1.8,0.96c-1.27,0-2.11-0.71-2.11-2.15v-2.9h0.67v2.83
		c0,1.06,0.55,1.61,1.5,1.61c1.05,0,1.7-0.67,1.7-1.82v-2.62H314.5z"/>
	<path class="st6" d="M316.39,288.31h0.67v7.05h-0.67V288.31z"/>
	<path class="st11" d="M211.49,263.81h-4.22v-2h10.81v2h-4.22v10.74h-2.37V263.81z"/>
	<path class="st11" d="M229.21,268.98v5.57h-2.28v-5.28c0-1.73-0.86-2.57-2.31-2.57c-1.62,0-2.71,0.98-2.71,2.93v4.91h-2.28v-13.51
		h2.28v4.92c0.75-0.8,1.89-1.24,3.24-1.24C227.49,264.72,229.21,266.05,229.21,268.98z"/>
	<path class="st11" d="M240.24,268.86v5.7h-2.15v-1.18c-0.55,0.84-1.6,1.31-3.06,1.31c-2.22,0-3.62-1.22-3.62-2.91
		c0-1.62,1.09-2.89,4.04-2.89h2.51v-0.15c0-1.33-0.8-2.11-2.42-2.11c-1.09,0-2.22,0.36-2.95,0.96l-0.89-1.66
		c1.04-0.8,2.55-1.2,4.11-1.2C238.62,264.72,240.24,266.05,240.24,268.86z M237.97,271.52v-1.13h-2.35c-1.55,0-1.97,0.58-1.97,1.29
		c0,0.82,0.69,1.35,1.86,1.35C236.62,273.03,237.59,272.52,237.97,271.52z"/>
	<path class="st11" d="M252.73,268.98v5.57h-2.28v-5.28c0-1.73-0.86-2.57-2.31-2.57c-1.62,0-2.71,0.98-2.71,2.93v4.91h-2.28v-9.72
		h2.17v1.26c0.75-0.89,1.93-1.37,3.35-1.37C251,264.72,252.73,266.05,252.73,268.98z"/>
	<path class="st11" d="M259.59,270.39l-1.69,1.6v2.57h-2.28v-13.51h2.28v8.16l4.71-4.37h2.73l-4.06,4.08l4.44,5.64h-2.77
		L259.59,270.39z"/>
	<path class="st11" d="M281.32,264.83l-4.55,10.5c-0.89,2.2-2.13,2.88-3.75,2.88c-0.96,0-1.98-0.33-2.6-0.89l0.91-1.67
		c0.44,0.42,1.06,0.67,1.67,0.67c0.8,0,1.27-0.38,1.71-1.35l0.16-0.38l-4.24-9.76H273l3.06,7.19l3.08-7.19H281.32z"/>
	<path class="st11" d="M281.66,269.69c0-2.91,2.18-4.97,5.17-4.97c3.02,0,5.19,2.06,5.19,4.97c0,2.91-2.17,4.99-5.19,4.99
		C283.85,274.68,281.66,272.61,281.66,269.69z M289.73,269.69c0-1.86-1.24-3.04-2.89-3.04c-1.64,0-2.88,1.18-2.88,3.04
		c0,1.86,1.24,3.04,2.88,3.04C288.49,272.73,289.73,271.55,289.73,269.69z"/>
	<path class="st11" d="M303.62,264.83v9.72h-2.17v-1.24c-0.73,0.89-1.88,1.37-3.13,1.37c-2.49,0-4.19-1.37-4.19-4.3v-5.55h2.28v5.24
		c0,1.77,0.84,2.6,2.28,2.6c1.58,0,2.66-0.98,2.66-2.93v-4.92H303.62z"/>
	<path class="st11" d="M306.18,273.26c0-0.78,0.62-1.4,1.47-1.4c0.84,0,1.44,0.62,1.44,1.4c0,0.78-0.6,1.42-1.44,1.42
		C306.8,274.68,306.18,274.05,306.18,273.26z M306.31,261.81H309l-0.46,8.52h-1.8L306.31,261.81z"/>
	<circle class="st11" cx="260.02" cy="216.56" r="26.18"/>
	<path class="st2" d="M272.91,205.51c0.33,0.27-4.56,6.85-10.92,14.69c-1.36,1.65-2.66,3.23-3.86,4.68l-0.53,0.64l-0.57-0.58
		c-4.97-5.12-8.37-8.93-8.13-9.17c0.24-0.24,4.04,3.15,9.17,8.13l-1.09,0.06c1.18-1.47,2.45-3.07,3.79-4.73
		C267.14,211.38,272.58,205.24,272.91,205.51z"/>
	<path class="st11" d="M297.21,206.01c-0.78-2.75-4.35-2.48-4.35-2.48l0.1,1.91c2.07-0.36,3.35,2.07,3.35,2.07L297.21,206.01z"/>
	<path class="st1" d="M221.37,211.78c-0.78-2.75-4.35-2.48-4.35-2.48l0.1,1.91c2.07-0.36,3.35,2.07,3.35,2.07L221.37,211.78z"/>
	<path class="st1" d="M263.14,173.73c4.15,1.26,6.73-3.53,6.73-3.53l-2.52-1.44c-1.23,2.93-5.37,2.59-5.37,2.59L263.14,173.73z"/>
	<path class="st11" d="M240.13,178.88c-1.93,0.2-2.16,2.63-2.16,2.63l1.29,0.15c0-1.42,1.77-2.01,1.77-2.01L240.13,178.88z"/>
	<path class="st1" d="M319.67,196.6c0.28-1.92-2.01-2.74-2.01-2.74l-0.47,1.21c1.38,0.35,1.51,2.21,1.51,2.21L319.67,196.6z"/>
	<path class="st11" d="M251.39,153.61c0.28-1.92-2.01-2.74-2.01-2.74l-0.47,1.21c1.38,0.35,1.5,2.21,1.5,2.21L251.39,153.61z"/>
	<path class="st11" d="M203.71,184.58c-0.35,3.01,3.64,3.74,3.64,3.74l0.72-1.97c-2.39-0.22-2.74-3.03-2.74-3.03L203.71,184.58z"/>
	<path class="st11" d="M292.47,173.67c1.94,0.11,2.56-2.24,2.56-2.24l-1.25-0.36c-0.23,1.41-2.07,1.69-2.07,1.69L292.47,173.67z"/>
	<g>
		<path class="st1" d="M303.06,181.57c0,0.09-0.72,0.16-1.6,0.16c-0.88,0-1.6-0.07-1.6-0.16c0-0.09,0.72-0.16,1.6-0.16
			C302.34,181.41,303.06,181.48,303.06,181.57z"/>
	</g>
	<g>
		<path class="st1" d="M304.76,177.22c0.09,0,0.16,0.73,0.16,1.62c0,0.9-0.07,1.62-0.16,1.62s-0.16-0.73-0.16-1.62
			C304.6,177.94,304.67,177.22,304.76,177.22z"/>
	</g>
	<g>
		<path class="st1" d="M306.57,181.46c0-0.09,0.72-0.16,1.6-0.16c0.88,0,1.6,0.07,1.6,0.16c0,0.09-0.72,0.16-1.6,0.16
			C307.28,181.62,306.57,181.55,306.57,181.46z"/>
	</g>
	<g>
		<path class="st1" d="M304.87,185.82c-0.09,0-0.16-0.73-0.16-1.62c0-0.9,0.07-1.62,0.16-1.62c0.09,0,0.16,0.73,0.16,1.62
			C305.02,185.09,304.95,185.82,304.87,185.82z"/>
	</g>
	<path class="st1" d="M307.45,183.95c-0.07,0.06-0.37-0.2-0.69-0.58c-0.31-0.38-0.51-0.73-0.45-0.78c0.07-0.06,0.37,0.2,0.69,0.58
		C307.32,183.54,307.52,183.89,307.45,183.95z"/>
	<path class="st1" d="M307.3,179.01c0.06,0.06-0.15,0.38-0.48,0.71c-0.33,0.33-0.64,0.55-0.7,0.49c-0.06-0.06,0.15-0.38,0.48-0.71
		C306.93,179.17,307.24,178.95,307.3,179.01z"/>
	<path class="st1" d="M303.64,180.27c-0.06,0.07-0.35-0.09-0.66-0.35c-0.31-0.26-0.52-0.52-0.46-0.59s0.35,0.09,0.66,0.35
		C303.48,179.94,303.69,180.21,303.64,180.27z"/>
	<path class="st1" d="M303.49,182.45c0.06,0.06-0.12,0.37-0.42,0.69c-0.3,0.32-0.59,0.54-0.65,0.48c-0.06-0.06,0.12-0.37,0.42-0.69
		C303.14,182.6,303.43,182.39,303.49,182.45z"/>
	<g>
		<path class="st11" d="M215.94,172.65c0,0.09-0.72,0.16-1.6,0.16c-0.88,0-1.6-0.07-1.6-0.16c0-0.09,0.72-0.16,1.6-0.16
			C215.23,172.5,215.94,172.57,215.94,172.65z"/>
	</g>
	<g>
		<path class="st11" d="M217.64,168.3c0.09,0,0.16,0.73,0.16,1.62c0,0.9-0.07,1.62-0.16,1.62c-0.09,0-0.16-0.73-0.16-1.62
			C217.48,169.03,217.55,168.3,217.64,168.3z"/>
	</g>
	<g>
		<path class="st11" d="M219.45,172.55c0-0.09,0.72-0.16,1.6-0.16c0.88,0,1.6,0.07,1.6,0.16c0,0.09-0.72,0.16-1.6,0.16
			C220.17,172.71,219.45,172.64,219.45,172.55z"/>
	</g>
	<g>
		<path class="st11" d="M217.75,176.9c-0.09,0-0.16-0.73-0.16-1.62c0-0.9,0.07-1.62,0.16-1.62c0.09,0,0.16,0.73,0.16,1.62
			C217.91,176.17,217.84,176.9,217.75,176.9z"/>
	</g>
	<path class="st11" d="M220.34,175.04c-0.07,0.06-0.37-0.2-0.69-0.58c-0.31-0.38-0.51-0.73-0.45-0.78c0.07-0.06,0.37,0.2,0.69,0.58
		C220.2,174.63,220.4,174.98,220.34,175.04z"/>
	<path class="st16" d="M220.19,170.1c0.06,0.06-0.15,0.38-0.48,0.71c-0.33,0.33-0.64,0.55-0.7,0.49c-0.06-0.06,0.15-0.38,0.48-0.71
		C219.81,170.26,220.13,170.04,220.19,170.1z"/>
	<path class="st11" d="M216.52,171.36c-0.06,0.07-0.35-0.09-0.66-0.35c-0.31-0.26-0.52-0.52-0.46-0.59
		c0.06-0.07,0.35,0.09,0.66,0.35C216.37,171.03,216.58,171.29,216.52,171.36z"/>
	<path class="st11" d="M216.38,173.53c0.06,0.06-0.12,0.37-0.42,0.69c-0.3,0.32-0.59,0.54-0.65,0.48c-0.06-0.06,0.12-0.37,0.42-0.69
		C216.02,173.69,216.31,173.47,216.38,173.53z"/>
	<path class="st6" d="M326.62,131.05c0,0.14-3.16,0.26-7.06,0.26c-3.9,0-7.06-0.12-7.06-0.26s3.16-0.26,7.06-0.26
		C323.45,130.79,326.62,130.9,326.62,131.05z"/>
	<path class="st6" d="M326.62,133.99c0,0.14-3.16,0.26-7.06,0.26c-3.9,0-7.06-0.12-7.06-0.26c0-0.14,3.16-0.26,7.06-0.26
		C323.45,133.73,326.62,133.85,326.62,133.99z"/>
	<path class="st6" d="M326.62,136.93c0,0.14-3.16,0.26-7.06,0.26c-3.9,0-7.06-0.12-7.06-0.26s3.16-0.26,7.06-0.26
		C323.45,136.67,326.62,136.79,326.62,136.93z"/>
	
		<rect x="244.12" y="337.26" transform="matrix(-1 -7.807327e-03 7.807327e-03 -1 518.3706 718.1111)" class="st0" width="32.93" height="41.57"/>
	<polygon class="st12" points="264.34,338.61 263.75,378.85 258.55,378.81 259.66,338.57 	"/>
	<polygon class="st1" points="225.38,338.3 244.27,338.45 277.2,338.71 244.24,343.04 243.96,378.7 225.08,378.55 	"/>
	<polygon class="st12" points="235.67,338.38 234.92,378.63 229.31,378.58 230.23,338.34 	"/>
	<g>
		<path class="st1" d="M250.62,326.13c0.01,0.25-0.54,0.52-1.55,0.76c-1.01,0.24-2.49,0.49-4.37,0.58c-0.94,0.05-1.98,0.05-3.1-0.03
			c-0.56-0.04-1.15-0.1-1.75-0.2c-0.61-0.1-1.18-0.19-1.93-0.41c-0.37-0.12-0.76-0.26-1.18-0.51c-0.42-0.25-0.89-0.61-1.25-1.17
			c-0.37-0.56-0.53-1.26-0.54-1.81c-0.01-0.56,0.08-1.02,0.16-1.4c0.31-1.33,0.63-2.69,1.26-4.17c0.32-0.73,0.72-1.45,1.2-2.12
			c0.25-0.34,0.5-0.64,0.81-0.96c0.32-0.32,0.67-0.62,1.1-0.89c0.43-0.26,0.93-0.49,1.49-0.6c0.56-0.11,1.18-0.09,1.71,0.04
			c1.06,0.28,1.73,0.82,2.25,1.25c2,1.69,3.42,3.59,4.33,5.31c0.91,1.72,1.32,3.26,1.46,4.33c0.13,1.08,0,1.69-0.24,1.74
			c-0.53,0.13-1.31-1.99-3.4-4.66c-1.05-1.32-2.45-2.77-4.23-4.05c-0.41-0.3-0.79-0.48-0.96-0.49c-0.09-0.01-0.12,0-0.18,0.02
			c-0.06,0.02-0.16,0.07-0.29,0.15c-0.13,0.09-0.27,0.21-0.42,0.37c-0.15,0.16-0.32,0.38-0.47,0.58c-0.3,0.43-0.56,0.91-0.8,1.45
			c-0.46,1.06-0.8,2.33-1.13,3.53c-0.07,0.25-0.1,0.44-0.1,0.52l0,0.04l0,0.01c-0.02,0-0.08,0.02-0.1,0.02
			c-0.12,0.03-0.15,0.06-0.07,0.01c0.01-0.01,0.09-0.06,0.12-0.09c0,0,0,0.01,0.01,0.02c0.01,0.02,0.04,0.05,0.09,0.09
			c0.1,0.07,0.27,0.16,0.47,0.24c0.4,0.16,0.97,0.31,1.47,0.44c0.51,0.14,1.02,0.24,1.51,0.35c0.99,0.2,1.93,0.34,2.81,0.46
			c1.75,0.23,3.21,0.39,4.22,0.59C250.04,325.66,250.61,325.88,250.62,326.13z"/>
	</g>
	<g>
		<path class="st0" d="M249.94,326.43c-0.09-0.52,2.37-1.29,6.22-2.42c1.91-0.58,4.16-1.29,6.48-2.32c0.57-0.25,1.09-0.52,1.4-0.78
			c0.15-0.12,0.22-0.23,0.2-0.22c-0.02,0.01-0.04,0.15-0.05,0.08c-0.01-0.06-0.09-0.27-0.24-0.58c-0.16-0.32-0.31-0.65-0.47-0.98
			c-0.32-0.64-0.64-1.24-1-1.79c-0.36-0.54-0.75-1.01-1.17-1.4c-0.21-0.2-0.44-0.37-0.66-0.53c-0.21-0.14-0.41-0.25-0.6-0.32
			c-0.39-0.15-0.67-0.17-0.97-0.09c-0.31,0.08-0.73,0.32-1.16,0.68c-1.89,1.58-3.42,3.33-4.5,4.89c-2.21,3.14-2.79,5.59-3.34,5.51
			c-0.24-0.03-0.42-0.7-0.34-1.91c0.09-1.2,0.48-2.94,1.42-4.9c0.94-1.97,2.41-4.11,4.52-6.14c0.57-0.52,1.3-1.12,2.33-1.48
			c1.04-0.37,2.28-0.31,3.26,0.05c0.5,0.17,0.95,0.41,1.37,0.67c0.39,0.26,0.77,0.53,1.12,0.85c0.71,0.62,1.3,1.35,1.8,2.1
			c0.49,0.75,0.89,1.51,1.23,2.23c0.16,0.36,0.32,0.71,0.48,1.06c0.16,0.37,0.38,0.85,0.49,1.51c0.12,0.65,0.01,1.55-0.37,2.19
			c-0.36,0.65-0.82,1.04-1.22,1.35c-0.82,0.59-1.58,0.87-2.25,1.12c-2.67,0.98-5.15,1.45-7.21,1.73
			C252.56,327.06,250.02,326.91,249.94,326.43z"/>
	</g>
	
		<rect x="219.44" y="324.69" transform="matrix(-1 -7.807130e-03 7.807130e-03 -1 484.6886 665.0217)" class="st1" width="48.4" height="13.76"/>
	
		<rect x="237.24" y="324.81" transform="matrix(-1 -7.807405e-03 7.807405e-03 -1 515.6331 665.3842)" class="st0" width="43.75" height="13.76"/>
	<polygon class="st12" points="267.62,324.87 267.31,338.69 262.21,338.59 262.57,324.83 	"/>
	<polygon class="st12" points="231.37,324.66 230.87,338.36 225.26,338.31 225.56,324.54 	"/>
	
		<rect x="279.72" y="354.46" transform="matrix(-1 -7.808075e-03 7.808075e-03 -1 575.238 734.7205)" class="st0" width="18.66" height="23.55"/>
	<polygon class="st12" points="291.18,355.22 290.85,378.03 287.9,378.01 288.53,355.2 	"/>
	<polygon class="st1" points="269.1,355.05 279.81,355.13 298.47,355.28 279.79,357.74 279.63,377.94 268.93,377.86 	"/>
	<polygon class="st12" points="274.93,355.1 274.51,377.9 271.33,377.88 271.85,355.07 	"/>
	<g>
		<path class="st1" d="M283.4,348.15c0,0.34-1.22,0.77-3.36,0.95c-1.09,0.06-2.34,0.08-3.91-0.32c-0.42-0.14-1.01-0.33-1.51-1.05
			c-0.24-0.36-0.34-0.81-0.35-1.15c-0.01-0.35,0.05-0.63,0.09-0.85c0.18-0.76,0.35-1.54,0.73-2.41c0.19-0.43,0.42-0.85,0.71-1.25
			c0.29-0.38,0.62-0.78,1.16-1.11c0.5-0.33,1.32-0.53,2-0.34c0.66,0.18,1.06,0.51,1.37,0.76c1.15,0.99,1.95,2.1,2.46,3.1
			c1.01,2.04,0.86,3.49,0.54,3.54c-0.37,0.09-0.87-1.09-2.08-2.54c-0.61-0.72-1.4-1.51-2.39-2.21c-0.23-0.16-0.42-0.24-0.45-0.23
			l-0.01,0l0-0.05l0.01,0.06c0,0.01-0.03,0.02-0.08,0.05c-0.1,0.06-0.26,0.25-0.43,0.48c-0.15,0.22-0.29,0.48-0.42,0.77
			c-0.25,0.57-0.44,1.29-0.63,1.96l-0.05,0.23c0.04,0-0.13,0.01-0.17,0.01c-0.06,0.01-0.11,0.02-0.15,0.03
			c-0.07,0.02-0.08,0.03-0.04,0.01c0.04-0.02,0.09-0.07,0.18-0.16l0.05-0.06l0,0c0,0,0.01,0.01,0.02,0.02
			c0.03,0.03,0.11,0.08,0.21,0.12c1.03,0.38,2.25,0.6,3.21,0.75C282.09,347.55,283.4,347.78,283.4,348.15z"/>
	</g>
	<g>
		<path class="st1" d="M283.02,348.33c-0.07-0.4,1.32-0.93,3.47-1.63c1.07-0.36,2.32-0.78,3.6-1.38c0.31-0.14,0.59-0.3,0.71-0.41
			c0.06-0.05,0.06-0.09,0.01-0.01c-0.05,0.07-0.08,0.26-0.07,0.27c-0.12-0.26-0.25-0.52-0.37-0.78c-0.18-0.36-0.35-0.68-0.54-0.97
			c-0.19-0.29-0.39-0.53-0.6-0.72c-0.22-0.2-0.45-0.36-0.59-0.42c-0.16-0.06-0.22-0.07-0.32-0.06c-0.1,0.01-0.31,0.12-0.54,0.3
			c-1.05,0.85-1.92,1.8-2.55,2.64c-1.28,1.69-1.71,3.04-2.12,2.99c-0.36-0.01-0.66-1.66,0.39-3.99c0.52-1.16,1.34-2.41,2.56-3.6
			c0.34-0.31,0.78-0.69,1.44-0.92c0.66-0.24,1.46-0.2,2.08,0.02c0.32,0.11,0.6,0.25,0.86,0.42c0.24,0.16,0.47,0.32,0.68,0.51
			c0.43,0.37,0.79,0.81,1.08,1.26c0.29,0.45,0.52,0.89,0.72,1.31l0.27,0.61c0.09,0.22,0.23,0.51,0.3,0.95
			c0.08,0.43,0,1.04-0.25,1.47c-0.24,0.43-0.54,0.69-0.8,0.88c-0.52,0.37-0.97,0.53-1.36,0.67c-1.55,0.55-2.98,0.79-4.16,0.92
			C284.53,348.88,283.08,348.7,283.02,348.33z"/>
	</g>
	
		<rect x="265.74" y="347.33" transform="matrix(-1 -7.805711e-03 7.805711e-03 -1 556.1528 704.6364)" class="st1" width="27.43" height="7.8"/>
	
		<rect x="275.82" y="347.4" transform="matrix(-1 -7.808635e-03 7.808635e-03 -1 573.6866 704.8426)" class="st0" width="24.79" height="7.8"/>
	<polygon class="st12" points="293.04,347.44 292.86,355.27 289.97,355.21 290.18,347.42 	"/>
	<polygon class="st12" points="272.5,347.32 272.22,355.08 269.04,355.06 269.21,347.25 	"/>
</g>
<g id="Plant">
	<g>
		<g>
			<g>
				<path class="st11" d="M422.45,397.81c3.05,1.33,5.3,4.15,6.43,7.28c1.13,3.13,1.23,6.55,0.85,9.86
					c-0.73,6.4-4.36,12.86-8.28,17.98c-5.39-4.7-6.63-12.91-7-17.11C413.88,409.18,416.86,396.82,422.45,397.81"/>
			</g>
		</g>
		<g>
			<g>
				<path class="st11" d="M427.72,443.5c-0.86-3.62,0.64-7.59,3.42-10.06c2.78-2.47,6.66-3.52,10.36-3.24
					c1.71,0.13,3.57,0.63,4.55,2.04c0.92,1.32,0.82,3.16,0.07,4.59c-0.74,1.42-2.03,2.49-3.4,3.34
					C438.06,443.1,433,445.08,427.72,443.5"/>
			</g>
		</g>
		<g>
			<g>
				<g>
					<path class="st6" d="M420.81,463.12c-0.03-0.01,0.04-0.47,0.19-1.31c0.17-0.92,0.39-2.12,0.65-3.55
						c0.6-2.97,1.36-7.22,3.67-11.35c2.28-4.12,5.46-7.15,8.15-8.66c1.33-0.77,2.5-1.23,3.32-1.47c0.41-0.14,0.74-0.19,0.96-0.24
						c0.22-0.05,0.34-0.06,0.34-0.05c0.04,0.1-1.87,0.45-4.45,2.04c-2.59,1.55-5.67,4.55-7.91,8.6c-2.26,4.04-3.08,8.24-3.75,11.19
						c-0.33,1.49-0.59,2.7-0.8,3.53C420.97,462.67,420.84,463.13,420.81,463.12z"/>
				</g>
			</g>
		</g>
		<g>
			<g>
				<g>
					<path class="st6" d="M421.01,407.42c0.02,0,0.04,0.2,0.07,0.57c0.03,0.43,0.06,0.97,0.1,1.65c0.08,1.43,0.16,3.51,0.24,6.07
						c0.17,5.13,0.3,12.22,0.26,20.05c-0.04,7.83-0.23,14.92-0.44,20.05c-0.1,2.56-0.21,4.64-0.3,6.07
						c-0.05,0.68-0.08,1.22-0.11,1.65c-0.03,0.38,0.02,0,0,0c0.07-0.57-0.09,0.37-0.09,0c0.01-0.43,0.01-0.97,0.02-1.65
						c0.04-1.49,0.09-3.55,0.15-6.07c0.13-5.13,0.27-12.21,0.3-20.04c0.03-7.82-0.05-14.91-0.13-20.04
						c-0.04-2.52-0.07-4.58-0.1-6.07c0-0.68-0.01-1.23-0.01-1.65C420.99,407.62,421,407.42,421.01,407.42z"/>
				</g>
			</g>
		</g>
		<g>
			<g>
				<path class="st11" d="M418.4,447.39c-1.23-7.74-6.45-14.75-13.52-18.13c-1.8-0.86-4.15-1.43-5.63-0.09
					c-1.48,1.34-1.15,3.75-0.43,5.61c3.02,7.75,11.13,13.23,19.45,13.13"/>
			</g>
		</g>
		<g>
			<g>
				<g>
					<path class="st6" d="M405.75,435.33c0.01-0.03,0.42,0.15,1.14,0.5c0.36,0.17,0.81,0.39,1.29,0.69c0.48,0.3,1.07,0.6,1.65,1.03
						c0.59,0.42,1.24,0.86,1.88,1.42c0.67,0.52,1.32,1.15,2,1.82c1.33,1.37,2.66,3,3.81,4.89c1.12,1.9,1.94,3.85,2.51,5.67
						c0.26,0.92,0.5,1.79,0.63,2.63c0.18,0.83,0.25,1.62,0.32,2.33c0.1,0.71,0.07,1.37,0.09,1.94c0.03,0.57-0.01,1.06-0.04,1.46
						c-0.06,0.8-0.11,1.24-0.14,1.24c-0.11,0,0.08-1.78-0.24-4.61c-0.09-0.71-0.18-1.48-0.37-2.29c-0.14-0.82-0.4-1.68-0.66-2.58
						c-0.58-1.78-1.39-3.69-2.5-5.56c-1.12-1.85-2.42-3.47-3.71-4.83c-0.66-0.67-1.29-1.3-1.94-1.82c-0.62-0.56-1.25-1.02-1.82-1.44
						C407.33,436.16,405.7,435.42,405.75,435.33z"/>
				</g>
			</g>
		</g>
	</g>
</g>
</svg>
